<svg xmlns="http://www.w3.org/2000/svg"
   xmlns:xlink="http://www.w3.org/1999/xlink"
   version="1.1"
   id="Eksamen2023V-RFIDoppgave" width="100%" height="100%"  viewBox="-6 -6 1164 515">
<desc>
XCircuit Version 3.10
File "/home/fred-olav/Eksamen2023V-RFIDoppgave.eps" Page 1
</desc>
<g stroke="black">
<path d="M507,153 L507,509 795,509 795,153 z" fill="none" stroke-width="2" stroke-linejoin="bevel" stroke-linecap="round" stroke="#000000" />
<g transform="matrix(   1    0   -0    1 675 113)" fill="#000000" >
<text stroke="none" font-family="Helvetica" font-size="40" ><tspan x="-210" y="0">IDENTControl interface</tspan>
</text></g>
<path d="M539,425 L539,489 579,489 579,425 z" fill="none" stroke-width="2" stroke-linejoin="bevel" stroke-linecap="round" stroke="#000000" />
<g transform="matrix( 0.5    0   -0  0.5 559 417)" fill="#000000" >
<text stroke="none" font-family="Helvetica" font-size="40" ><tspan x="-57" y="0">Power</tspan>
</text></g>
<path d="M727,389 L727,489 763,489 763,389 z" fill="none" stroke-width="2" stroke-linejoin="bevel" stroke-linecap="round" stroke="#000000" />
<g transform="matrix( 0.5    0   -0  0.5 747 369)" fill="#000000" >
<text stroke="none" font-family="Helvetica" font-size="40" ><tspan x="-77" y="0">Ethernet</tspan>
</text></g>
<path d="M587,193 A32,32 0 1,0 598,203 " fill="none" stroke-width="2" stroke-linejoin="bevel" stroke-linecap="round" stroke="#000000" />
<path d="M586,193 A8,8 0 0,0 597,204 " fill="none" stroke-width="2" stroke-linejoin="bevel" stroke-linecap="round" stroke="#000000" />
<ellipse cx="571" cy="221" rx="4" ry="4" fill="none" stroke-width="2" stroke-linejoin="bevel" stroke-linecap="round" stroke="#000000" />
<ellipse cx="571" cy="241" rx="4" ry="4" fill="none" stroke-width="2" stroke-linejoin="bevel" stroke-linecap="round" stroke="#000000" />
<ellipse cx="551" cy="221" rx="4" ry="4" fill="none" stroke-width="2" stroke-linejoin="bevel" stroke-linecap="round" stroke="#000000" />
<ellipse cx="571" cy="202" rx="4" ry="4" fill="none" stroke-width="2" stroke-linejoin="bevel" stroke-linecap="round" stroke="#000000" />
<ellipse cx="592" cy="221" rx="4" ry="4" fill="none" stroke-width="2" stroke-linejoin="bevel" stroke-linecap="round" stroke="#000000" />
<ellipse cx="571" cy="221" rx="40" ry="40" fill="none" stroke-width="2" stroke-linejoin="bevel" stroke-linecap="round" stroke="#000000" />
<g transform="matrix( 0.5    0   -0  0.5 570 177)" fill="#000000" >
<text stroke="none" font-family="Helvetica" font-size="40" ><tspan x="-7" y="0">1</tspan>
</text></g>
<g transform="matrix( 0.5    0   -0  0.5 570 278)" fill="#000000" >
<text stroke="none" font-family="Helvetica" font-size="40" ><tspan x="-10" y="0">3</tspan>
</text></g>
<g transform="matrix( 0.5    0   -0  0.5 618 226)" fill="#000000" >
<text stroke="none" font-family="Helvetica" font-size="40" ><tspan x="-12" y="0">2</tspan>
</text></g>
<g transform="matrix( 0.5    0   -0  0.5 523 226)" fill="#000000" >
<text stroke="none" font-family="Helvetica" font-size="40" ><tspan x="-13" y="0">4</tspan>
</text></g>
<g transform="matrix( 0.5    0   -0  0.5 530 185)" fill="#000000" >
<text stroke="none" font-family="Helvetica" font-size="40" ><tspan x="-11" y="0">5</tspan>
</text></g>
<path d="M537,185 L566,215 " fill="none" stroke-width="2" stroke-linejoin="bevel" stroke-linecap="round" stroke="#000000" />
<path d="M163,177 C179,177 503,89 571,201 " fill="none" stroke-width="2" stroke-linejoin="bevel" stroke-linecap="round" stroke="#ff0000" />
<path d="M159,237 C175,237 475,253 571,241 " fill="none" stroke-width="2" stroke-linejoin="bevel" stroke-linecap="round" stroke="#000000" />
<path d="M159,205 C175,205 503,185 551,221 " fill="none" stroke-width="2" stroke-linejoin="bevel" stroke-linecap="round" stroke="#0000ff" />
<path d="M159,269 C175,269 679,353 591,221 " fill="none" stroke-width="2" stroke-linejoin="bevel" stroke-linecap="round" stroke="#00ef00" />
<ellipse cx="547" cy="433" rx="4" ry="4" fill="none" stroke-width="2" stroke-linejoin="bevel" stroke-linecap="round" stroke="#000000" />
<g transform="matrix( 0.3    0   -0  0.3 555 433)" fill="#000000" >
<text stroke="none" font-family="Helvetica" font-size="40" ><tspan x="0" y="13">1</tspan>
</text></g>
<ellipse cx="547" cy="445" rx="4" ry="4" fill="none" stroke-width="2" stroke-linejoin="bevel" stroke-linecap="round" stroke="#000000" />
<g transform="matrix( 0.3    0   -0  0.3 555 445)" fill="#000000" >
<text stroke="none" font-family="Helvetica" font-size="40" ><tspan x="0" y="13">2</tspan>
</text></g>
<ellipse cx="547" cy="457" rx="4" ry="4" fill="none" stroke-width="2" stroke-linejoin="bevel" stroke-linecap="round" stroke="#000000" />
<g transform="matrix( 0.3    0   -0  0.3 555 457)" fill="#000000" >
<text stroke="none" font-family="Helvetica" font-size="40" ><tspan x="0" y="13">3</tspan>
</text></g>
<ellipse cx="547" cy="469" rx="4" ry="4" fill="none" stroke-width="2" stroke-linejoin="bevel" stroke-linecap="round" stroke="#000000" />
<g transform="matrix( 0.3    0   -0  0.3 555 469)" fill="#000000" >
<text stroke="none" font-family="Helvetica" font-size="40" ><tspan x="0" y="13">4</tspan>
</text></g>
<ellipse cx="547" cy="481" rx="4" ry="4" fill="none" stroke-width="2" stroke-linejoin="bevel" stroke-linecap="round" stroke="#000000" />
<g transform="matrix( 0.3    0   -0  0.3 555 481)" fill="#000000" >
<text stroke="none" font-family="Helvetica" font-size="40" ><tspan x="0" y="13">5</tspan>
</text></g>
<path d="M547,433 C563,433 447,409 379,433 " fill="none" stroke-width="2" stroke-linejoin="bevel" stroke-linecap="round" stroke="#ff0000" />
<path d="M547,445 C563,445 447,421 379,445 " fill="none" stroke-width="2" stroke-linejoin="bevel" stroke-linecap="round" stroke="#000000" />
<g transform="matrix( 0.3    0   -0  0.3 375 433)" fill="#000000" >
<text stroke="none" font-family="Helvetica" font-size="40" ><tspan x="-134" y="13">24VDC</tspan>
</text></g>
<g transform="matrix( 0.3    0   -0  0.3 375 445)" fill="#000000" >
<text stroke="none" font-family="Helvetica" font-size="40" ><tspan x="-108" y="13">0VDC</tspan>
</text></g>
<ellipse cx="287" cy="221" rx="46" ry="83" fill="none" stroke-width="2" stroke-linejoin="bevel" stroke-linecap="round" stroke="#000000" />
<path d="M287,137 L343,17 " fill="none" stroke-width="2" stroke-linejoin="bevel" stroke-linecap="round" stroke="#000000" />
<g transform="matrix( 0.5    0   -0  0.5 355  13)" fill="#000000" >
<text stroke="none" font-family="Helvetica" font-size="40" ><tspan x="-308" y="0">Kabel: V1-G2M-PUR-ABG-V1-W</tspan>
</text></g>
<path d="M159,285 L159,158 0,158 0,285 z" fill="none" stroke-width="2" stroke-linejoin="bevel" stroke-linecap="round" stroke="#000000" />
<path d="M126,254 L126,189 63,189 63,254 z" fill="none" stroke-width="2" stroke-linejoin="bevel" stroke-linecap="round" stroke="#000000" />
<path d="M83,213 L107,213 " fill="none" stroke-width="2" stroke-linejoin="bevel" stroke-linecap="round" stroke="#000000" />
<path d="M83,229 L107,229 " fill="none" stroke-width="2" stroke-linejoin="bevel" stroke-linecap="round" stroke="#000000" />
<path d="M99,205 L119,221 99,237 " fill="none" stroke-width="2" stroke-linejoin="bevel" stroke-linecap="round" stroke="#000000" />
<path d="M91,205 L71,221 91,237 " fill="none" stroke-width="2" stroke-linejoin="bevel" stroke-linecap="round" stroke="#000000" />
<g transform="matrix( 0.4    0   -0  0.4  63 177)" fill="#000000" >
<text stroke="none" font-family="Helvetica" font-size="40" ><tspan x="-142" y="0">RFID R/W head</tspan>
</text></g>
<g transform="matrix( 0.4    0   -0  0.4 147 273)" fill="#000000" >
<text stroke="none" font-family="Helvetica" font-size="40" ><tspan x="-14" y="0">B</tspan>
</text></g>
<g transform="matrix( 0.4    0   -0  0.4 147 209)" fill="#000000" >
<text stroke="none" font-family="Helvetica" font-size="40" ><tspan x="-14" y="0">A</tspan>
</text></g>
<g transform="matrix( 0.4    0   -0  0.4 147 241)" fill="#000000" >
<text stroke="none" font-family="Helvetica" font-size="40" ><tspan x="-11" y="0">-</tspan>
</text></g>
<g transform="matrix( 0.4    0   -0  0.4 147 181)" fill="#000000" >
<text stroke="none" font-family="Helvetica" font-size="40" ><tspan x="-12" y="0">+</tspan>
</text></g>
<path d="M763,397 L751,397 " fill="none" stroke-width="2" stroke-linejoin="bevel" stroke-linecap="round" stroke="#000000" />
<path d="M763,409 L751,409 " fill="none" stroke-width="2" stroke-linejoin="bevel" stroke-linecap="round" stroke="#000000" />
<path d="M763,457 L751,457 " fill="none" stroke-width="2" stroke-linejoin="bevel" stroke-linecap="round" stroke="#000000" />
<path d="M763,421 L751,421 " fill="none" stroke-width="2" stroke-linejoin="bevel" stroke-linecap="round" stroke="#000000" />
<path d="M763,433 L751,433 " fill="none" stroke-width="2" stroke-linejoin="bevel" stroke-linecap="round" stroke="#000000" />
<path d="M763,481 L751,481 " fill="none" stroke-width="2" stroke-linejoin="bevel" stroke-linecap="round" stroke="#000000" />
<path d="M763,445 L751,445 " fill="none" stroke-width="2" stroke-linejoin="bevel" stroke-linecap="round" stroke="#000000" />
<path d="M763,469 L751,469 " fill="none" stroke-width="2" stroke-linejoin="bevel" stroke-linecap="round" stroke="#000000" />
<g transform="matrix( 0.3    0   -0  0.3 747 397)" fill="#000000" >
<text stroke="none" font-family="Helvetica" font-size="40" ><tspan x="-14" y="13">1</tspan>
</text></g>
<g transform="matrix( 0.3    0   -0  0.3 747 409)" fill="#000000" >
<text stroke="none" font-family="Helvetica" font-size="40" ><tspan x="-23" y="13">2</tspan>
</text></g>
<g transform="matrix( 0.3 -4.6758e-12 4.6758e-12  0.3 747 421)" fill="#000000" >
<text stroke="none" font-family="Helvetica" font-size="40" ><tspan x="-20" y="13">3</tspan>
</text></g>
<g transform="matrix( 0.3    0   -0  0.3 747 433)" fill="#000000" >
<text stroke="none" font-family="Helvetica" font-size="40" ><tspan x="-25" y="13">4</tspan>
</text></g>
<g transform="matrix( 0.3    0   -0  0.3 747 445)" fill="#000000" >
<text stroke="none" font-family="Helvetica" font-size="40" ><tspan x="-22" y="13">5</tspan>
</text></g>
<g transform="matrix( 0.3    0   -0  0.3 747 457)" fill="#000000" >
<text stroke="none" font-family="Helvetica" font-size="40" ><tspan x="-22" y="13">6</tspan>
</text></g>
<g transform="matrix( 0.3    0   -0  0.3 747 469)" fill="#000000" >
<text stroke="none" font-family="Helvetica" font-size="40" ><tspan x="-20" y="13">7</tspan>
</text></g>
<g transform="matrix( 0.3    0   -0  0.3 747 481)" fill="#000000" >
<text stroke="none" font-family="Helvetica" font-size="40" ><tspan x="-24" y="13">8</tspan>
</text></g>
<path d="M739,193 A32,32 0 1,0 750,203 " fill="none" stroke-width="2" stroke-linejoin="bevel" stroke-linecap="round" stroke="#000000" />
<path d="M738,193 A8,8 0 0,0 749,204 " fill="none" stroke-width="2" stroke-linejoin="bevel" stroke-linecap="round" stroke="#000000" />
<ellipse cx="723" cy="221" rx="4" ry="4" fill="none" stroke-width="2" stroke-linejoin="bevel" stroke-linecap="round" stroke="#000000" />
<ellipse cx="723" cy="241" rx="4" ry="4" fill="none" stroke-width="2" stroke-linejoin="bevel" stroke-linecap="round" stroke="#000000" />
<ellipse cx="703" cy="221" rx="4" ry="4" fill="none" stroke-width="2" stroke-linejoin="bevel" stroke-linecap="round" stroke="#000000" />
<ellipse cx="723" cy="202" rx="4" ry="4" fill="none" stroke-width="2" stroke-linejoin="bevel" stroke-linecap="round" stroke="#000000" />
<ellipse cx="744" cy="221" rx="4" ry="4" fill="none" stroke-width="2" stroke-linejoin="bevel" stroke-linecap="round" stroke="#000000" />
<ellipse cx="723" cy="221" rx="40" ry="40" fill="none" stroke-width="2" stroke-linejoin="bevel" stroke-linecap="round" stroke="#000000" />
<g transform="matrix( 0.5    0   -0  0.5 722 177)" fill="#000000" >
<text stroke="none" font-family="Helvetica" font-size="40" ><tspan x="-7" y="0">1</tspan>
</text></g>
<g transform="matrix( 0.5    0   -0  0.5 722 278)" fill="#000000" >
<text stroke="none" font-family="Helvetica" font-size="40" ><tspan x="-10" y="0">3</tspan>
</text></g>
<g transform="matrix( 0.5    0   -0  0.5 770 226)" fill="#000000" >
<text stroke="none" font-family="Helvetica" font-size="40" ><tspan x="-12" y="0">2</tspan>
</text></g>
<g transform="matrix( 0.5    0   -0  0.5 675 226)" fill="#000000" >
<text stroke="none" font-family="Helvetica" font-size="40" ><tspan x="-13" y="0">4</tspan>
</text></g>
<g transform="matrix( 0.5    0   -0  0.5 682 185)" fill="#000000" >
<text stroke="none" font-family="Helvetica" font-size="40" ><tspan x="-11" y="0">5</tspan>
</text></g>
<path d="M689,185 L718,215 " fill="none" stroke-width="2" stroke-linejoin="bevel" stroke-linecap="round" stroke="#000000" />
<path d="M955,285 L955,158 1083,158 1083,285 z" fill="none" stroke-width="2" stroke-linejoin="bevel" stroke-linecap="round" stroke="#000000" />
<g transform="matrix( 0.4    0   -0  0.4 1021 177)" fill="#000000" >
<text stroke="none" font-family="Helvetica" font-size="40" ><tspan x="-130" y="0">Trigger sensor</tspan>
</text></g>
<g transform="matrix( 0.4    0   -0  0.4 969 257)" fill="#000000" >
<text stroke="none" font-family="Helvetica" font-size="40" ><tspan x="-27" y="0">Sig</tspan>
</text></g>
<g transform="matrix( 0.4    0   -0  0.4 965 225)" fill="#000000" >
<text stroke="none" font-family="Helvetica" font-size="40" ><tspan x="-11" y="0">-</tspan>
</text></g>
<g transform="matrix( 0.4    0   -0  0.4 965 193)" fill="#000000" >
<text stroke="none" font-family="Helvetica" font-size="40" ><tspan x="-12" y="0">+</tspan>
</text></g>
<path d="M987,253 L987,189 1051,189 1051,253 z" fill="none" stroke-width="2" stroke-linejoin="bevel" stroke-linecap="round" stroke="#000000" />
<path d="M1019,197 L995,221 1019,245 1043,221 1019,197 " fill="none" stroke-width="2" stroke-linejoin="bevel" stroke-linecap="round" stroke="#000000" />
<path d="M1023,241 L1023,201 " fill="none" stroke-width="1" stroke-linejoin="bevel" stroke-linecap="round" stroke="#000000" />
<path d="M1015,201 L1015,241 " fill="none" stroke-width="1" stroke-linejoin="bevel" stroke-linecap="round" stroke="#000000" />
<path d="M723,201 C767,173 911,173 955,189 " fill="none" stroke-width="2" stroke-linejoin="bevel" stroke-linecap="round" stroke="#ff0000" />
<path d="M723,241 C739,241 771,265 955,221 " fill="none" stroke-width="2" stroke-linejoin="bevel" stroke-linecap="round" stroke="#000000" />
<path d="M703,221 C615,309 755,341 955,253 " fill="none" stroke-width="2" stroke-linejoin="bevel" stroke-linecap="round" stroke="#0000ff" />
<g transform="matrix( 0.5    0   -0  0.5 955  33)" fill="#000000" >
<text stroke="none" font-family="Helvetica" font-size="40" ><tspan x="-308" y="0">Kabel: V1-G2M-PUR-ABG-V1-W</tspan>
</text></g>
<path d="M887,157 L943,37 " fill="none" stroke-width="2" stroke-linejoin="bevel" stroke-linecap="round" stroke="#000000" />
<ellipse cx="887" cy="241" rx="46" ry="83" fill="none" stroke-width="2" stroke-linejoin="bevel" stroke-linecap="round" stroke="#000000" />
<g transform="matrix( 0.5    0   -0  0.5 987 449)" fill="#000000" >
<text stroke="none" font-family="Helvetica" font-size="40" ><tspan x="-342" y="0">Ethernet kabel direkte i PC for testing</tspan>
</text></g>
</g>
</svg>
