<?xml version="1.0" standalone="yes"?>

<svg width="242mm" height="99mm" viewBox="0 0 242 99" version="1.1"
xmlns="http://www.w3.org/2000/svg" style="stroke-linecap:round">
  <path d="M78.1433,98.0358 L78.1433,37.8209" style="stroke:rgb(0,0,0);stroke-width:0.25;fill:none" />
  <path d="M81.9835,15.2106 L80.6848,20.0575" style="stroke:rgb(0,0,0);stroke-width:0.25;fill:none" />
  <path d="M80.6848,20.0575 L82.403,20.0575" style="stroke:rgb(0,0,0);stroke-width:0.25;fill:none" />
  <path d="M82.403,20.0575 A1.39386,1.39386 0 0,0 83.7494,19.0244 " style="stroke:rgb(0,0,0);stroke-width:0.25;fill:none" />
  <path d="M83.7494,19.0244 L84.3952,16.6143" style="stroke:rgb(0,0,0);stroke-width:0.25;fill:none" />
  <path d="M84.3952,16.6143 A1.11509,1.11509 0 0,0 83.3181,15.2106 " style="stroke:rgb(0,0,0);stroke-width:0.25;fill:none" />
  <path d="M83.3181,15.2106 L81.9835,15.2106" style="stroke:rgb(0,0,0);stroke-width:0.25;fill:none" />
  <path d="M84.2881,19.2521 L84.8495,18.8213" style="stroke:rgb(0,0,0);stroke-width:0.25;fill:none" />
  <path d="M84.8495,18.8213 L84.33,20.7601" style="stroke:rgb(0,0,0);stroke-width:0.25;fill:none" />
  <path d="M87.3954,55.1179 L86.0967,59.9648" style="stroke:rgb(0,0,0);stroke-width:0.25;fill:none" />
  <path d="M86.0967,59.9648 L87.8149,59.9648" style="stroke:rgb(0,0,0);stroke-width:0.25;fill:none" />
  <path d="M87.8149,59.9648 A1.39386,1.39386 0 0,0 89.1613,58.9317 " style="stroke:rgb(0,0,0);stroke-width:0.25;fill:none" />
  <path d="M89.1613,58.9316 L89.8071,56.5215" style="stroke:rgb(0,0,0);stroke-width:0.25;fill:none" />
  <path d="M89.807,56.5216 A1.11509,1.11509 0 0,0 88.73,55.1179 " style="stroke:rgb(0,0,0);stroke-width:0.25;fill:none" />
  <path d="M88.73,55.1179 L87.3954,55.1179" style="stroke:rgb(0,0,0);stroke-width:0.25;fill:none" />
  <path d="M127.539,55.1179 L126.24,59.9648" style="stroke:rgb(0,0,0);stroke-width:0.25;fill:none" />
  <path d="M126.24,59.9648 L127.958,59.9648" style="stroke:rgb(0,0,0);stroke-width:0.25;fill:none" />
  <path d="M127.958,59.9648 A1.39386,1.39386 0 0,0 129.305,58.9317 " style="stroke:rgb(0,0,0);stroke-width:0.25;fill:none" />
  <path d="M129.305,58.9316 L129.95,56.5215" style="stroke:rgb(0,0,0);stroke-width:0.25;fill:none" />
  <path d="M129.95,56.5216 A1.11509,1.11509 0 0,0 128.873,55.1179 " style="stroke:rgb(0,0,0);stroke-width:0.25;fill:none" />
  <path d="M128.873,55.1179 L127.539,55.1179" style="stroke:rgb(0,0,0);stroke-width:0.25;fill:none" />
  <path d="M127.539,14.9746 L126.24,19.8215" style="stroke:rgb(0,0,0);stroke-width:0.25;fill:none" />
  <path d="M126.24,19.8215 L127.958,19.8215" style="stroke:rgb(0,0,0);stroke-width:0.25;fill:none" />
  <path d="M127.958,19.8215 A1.39386,1.39386 0 0,0 129.305,18.7884 " style="stroke:rgb(0,0,0);stroke-width:0.25;fill:none" />
  <path d="M129.305,18.7884 L129.95,16.3783" style="stroke:rgb(0,0,0);stroke-width:0.25;fill:none" />
  <path d="M129.95,16.3783 A1.11509,1.11509 0 0,0 128.873,14.9746 " style="stroke:rgb(0,0,0);stroke-width:0.25;fill:none" />
  <path d="M128.873,14.9746 L127.539,14.9746" style="stroke:rgb(0,0,0);stroke-width:0.25;fill:none" />
  <path d="M130.411,20.524 L129.519,20.524" style="stroke:rgb(0,0,0);stroke-width:0.25;fill:none" />
  <path d="M129.519,20.524 L130.708,19.2408" style="stroke:rgb(0,0,0);stroke-width:0.25;fill:none" />
  <path d="M130.708,19.2408 A0.390282,0.390282 0 0,0 130.422,18.5853 " style="stroke:rgb(0,0,0);stroke-width:0.25;fill:none" />
  <path d="M130.338,18.5853 L130.422,18.5853" style="stroke:rgb(0,0,0);stroke-width:0.25;fill:none" />
  <path d="M130.338,18.5853 A0.390282,0.390282 0 0,0 129.961,18.8745 " style="stroke:rgb(0,0,0);stroke-width:0.25;fill:none" />
  <path d="M89.4326,58.7285 L89.9614,58.7285" style="stroke:rgb(0,0,0);stroke-width:0.25;fill:none" />
  <path d="M89.9614,58.7285 A0.278773,0.278773 0 0,1 90.2306,59.0794 " style="stroke:rgb(0,0,0);stroke-width:0.25;fill:none" />
  <path d="M90.2306,59.0794 L90.1878,59.2392" style="stroke:rgb(0,0,0);stroke-width:0.25;fill:none" />
  <path d="M90.1878,59.2393 A0.473467,0.473467 0 0,1 89.7305,59.5902 " style="stroke:rgb(0,0,0);stroke-width:0.25;fill:none" />
  <path d="M89.7305,59.5902 L89.4247,59.5902" style="stroke:rgb(0,0,0);stroke-width:0.25;fill:none" />
  <path d="M89.7305,59.5902 A0.278773,0.278773 0 0,1 89.9997,59.9411 " style="stroke:rgb(0,0,0);stroke-width:0.25;fill:none" />
  <path d="M89.9997,59.9411 L89.8992,60.3163" style="stroke:rgb(0,0,0);stroke-width:0.25;fill:none" />
  <path d="M89.8992,60.3163 A0.473467,0.473467 0 0,1 89.4419,60.6673 " style="stroke:rgb(0,0,0);stroke-width:0.25;fill:none" />
  <path d="M89.4419,60.6673 L88.9131,60.6673" style="stroke:rgb(0,0,0);stroke-width:0.25;fill:none" />
  <path d="M129.943,60.6673 L130.174,59.8056" style="stroke:rgb(0,0,0);stroke-width:0.25;fill:none" />
  <path d="M130.393,60.2364 L129.278,60.2364" style="stroke:rgb(0,0,0);stroke-width:0.25;fill:none" />
  <path d="M129.278,60.2364 L130.128,58.7285" style="stroke:rgb(0,0,0);stroke-width:0.25;fill:none" />
  <path d="M38,47.8567 A2.50895,2.50895 0 1,0 38,42.8388 " style="stroke:rgb(0,0,0);stroke-width:0.25;fill:none" />
  <path d="M38,42.8388 A2.50895,2.50895 0 1,0 38,37.8209 " style="stroke:rgb(0,0,0);stroke-width:0.25;fill:none" />
  <path d="M38,37.8209 A2.50895,2.50895 0 1,0 38,32.803 " style="stroke:rgb(0,0,0);stroke-width:0.25;fill:none" />
  <path d="M38,32.803 A2.50895,2.50895 0 1,0 38,27.7851 " style="stroke:rgb(0,0,0);stroke-width:0.25;fill:none" />
  <path d="M38,27.7851 L38,17.7493" style="stroke:rgb(0,0,0);stroke-width:0.25;fill:none" />
  <path d="M38,47.8567 L38,57.8926" style="stroke:rgb(0,0,0);stroke-width:0.25;fill:none" />
  <path d="M43.0179,27.7851 L43.0179,47.8567" style="stroke:rgb(0,0,0);stroke-width:0.25;fill:none" />
  <path d="M48.0358,17.7493 L48.0353,9.43537" style="stroke:rgb(0,0,0);stroke-width:0.25;fill:none" />
  <path d="M48.0454,66.2065 L48.0555,66.2065" style="stroke:rgb(0,0,0);stroke-width:0.25;fill:none" />
  <path d="M48.0358,27.7851 A2.50895,2.50895 0 0,0 48.0358,32.803 " style="stroke:rgb(0,0,0);stroke-width:0.25;fill:none" />
  <path d="M48.0358,32.803 A2.50895,2.50895 0 0,0 48.0358,37.8209 " style="stroke:rgb(0,0,0);stroke-width:0.25;fill:none" />
  <path d="M48.0358,37.8209 A2.50895,2.50895 0 0,0 48.0358,42.8388 " style="stroke:rgb(0,0,0);stroke-width:0.25;fill:none" />
  <path d="M48.0358,42.8388 A2.50895,2.50895 0 0,0 48.0358,47.8567 " style="stroke:rgb(0,0,0);stroke-width:0.25;fill:none" />
  <path d="M48.0358,47.8567 L48.0358,57.8926" style="stroke:rgb(0,0,0);stroke-width:0.25;fill:none" />
  <path d="M48.0358,27.7851 L48.0358,17.7493" style="stroke:rgb(0,0,0);stroke-width:0.25;fill:none" />
  <path d="M48.0358,57.8926 L48.0555,66.2065" style="stroke:rgb(0,0,0);stroke-width:0.25;fill:none" />
  <path d="M106.529,66.2065 L48.0555,66.2065" style="stroke:rgb(0,0,0);stroke-width:0.25;fill:none" />
  <path d="M106.529,9.43537 L48.0353,9.43537" style="stroke:rgb(0,0,0);stroke-width:0.25;fill:none" />
  <path d="M38,17.7493 L37.9995,9.43537" style="stroke:rgb(0,0,0);stroke-width:0.25;fill:none" />
  <path d="M38,57.8926 L38.0197,66.2065" style="stroke:rgb(0,0,0);stroke-width:0.25;fill:none" />
  <path d="M38.0197,66.2065 L7.91221,66.2065" style="stroke:rgb(0,0,0);stroke-width:0.25;fill:none" />
  <path d="M37.9995,9.43537 L7.89208,9.43537" style="stroke:rgb(0,0,0);stroke-width:0.25;fill:none" />
  <ellipse cx="6.87485" cy="66.2435" rx="1.03803" ry="1.03803" style="stroke:rgb(0,0,0);stroke-width:0.25;fill:none;"/>
  <ellipse cx="6.88874" cy="9.57801" rx="1.01343" ry="1.01343" style="stroke:rgb(0,0,0);stroke-width:0.25;fill:none;"/>
  <path d="M3.69405,36.3156 L1.46387,36.3156" style="stroke:rgb(0,0,0);stroke-width:0.25;fill:none" />
  <path d="M1.46387,36.3156 L4.43687,33.1076" style="stroke:rgb(0,0,0);stroke-width:0.25;fill:none" />
  <path d="M4.4369,33.1076 A0.975704,0.975704 0 0,0 3.72126,31.4687 " style="stroke:rgb(0,0,0);stroke-width:0.25;fill:none" />
  <path d="M3.51129,31.4687 L3.72126,31.4687" style="stroke:rgb(0,0,0);stroke-width:0.25;fill:none" />
  <path d="M3.51129,31.4687 A0.975704,0.975704 0 0,0 2.56883,32.1918 " style="stroke:rgb(0,0,0);stroke-width:0.25;fill:none" />
  <path d="M6.27448,31.4687 L7.59642,31.4687" style="stroke:rgb(0,0,0);stroke-width:0.25;fill:none" />
  <path d="M7.59642,31.4686 A0.696931,0.696931 0 0,1 8.26961,32.3459 " style="stroke:rgb(0,0,0);stroke-width:0.25;fill:none" />
  <path d="M8.26955,32.346 L8.16255,32.7455" style="stroke:rgb(0,0,0);stroke-width:0.25;fill:none" />
  <path d="M8.16253,32.7455 A1.18367,1.18367 0 0,1 7.01919,33.6228 " style="stroke:rgb(0,0,0);stroke-width:0.25;fill:none" />
  <path d="M7.01919,33.6228 L6.2548,33.6228" style="stroke:rgb(0,0,0);stroke-width:0.25;fill:none" />
  <path d="M7.01919,33.6228 A0.696931,0.696931 0 0,1 7.69238,34.5002 " style="stroke:rgb(0,0,0);stroke-width:0.25;fill:none" />
  <path d="M7.69237,34.5001 L7.44098,35.4382" style="stroke:rgb(0,0,0);stroke-width:0.25;fill:none" />
  <path d="M7.44101,35.4383 A1.18367,1.18367 0 0,1 6.29768,36.3156 " style="stroke:rgb(0,0,0);stroke-width:0.25;fill:none" />
  <path d="M6.29768,36.3156 L4.97574,36.3156" style="stroke:rgb(0,0,0);stroke-width:0.25;fill:none" />
  <path d="M9.04555,34.9692 A2.03643,2.03643 0 0,0 9.245,36.0463 " style="stroke:rgb(0,0,0);stroke-width:0.25;fill:none" />
  <path d="M9.24495,36.0463 A0.511492,0.511492 0 0,0 9.68363,36.3155 " style="stroke:rgb(0,0,0);stroke-width:0.25;fill:none" />
  <path d="M9.68367,36.3155 A0.951284,0.951284 0 0,0 10.2666,36.0463 " style="stroke:rgb(0,0,0);stroke-width:0.25;fill:none" />
  <path d="M10.2667,36.0463 A3.57838,3.57838 0 0,0 11.0433,34.9692 " style="stroke:rgb(0,0,0);stroke-width:0.25;fill:none" />
  <path d="M11.0433,34.9692 L11.2291,34.5554" style="stroke:rgb(0,0,0);stroke-width:0.25;fill:none" />
  <path d="M11.2291,34.5554 L11.3581,34.1994" style="stroke:rgb(0,0,0);stroke-width:0.25;fill:none" />
  <path d="M11.3581,34.1994 L11.4716,33.7993" style="stroke:rgb(0,0,0);stroke-width:0.25;fill:none" />
  <path d="M11.4716,33.7993 L11.5801,33.2261" style="stroke:rgb(0,0,0);stroke-width:0.25;fill:none" />
  <path d="M11.5801,33.2261 L11.6205,32.815" style="stroke:rgb(0,0,0);stroke-width:0.25;fill:none" />
  <path d="M11.6206,32.8146 A2.03621,2.03621 0 0,0 11.4211,31.7379 " style="stroke:rgb(0,0,0);stroke-width:0.25;fill:none" />
  <path d="M11.421,31.7379 A0.511492,0.511492 0 0,0 10.9824,31.4686 " style="stroke:rgb(0,0,0);stroke-width:0.25;fill:none" />
  <path d="M10.9824,31.4686 A0.951284,0.951284 0 0,0 10.3994,31.7379 " style="stroke:rgb(0,0,0);stroke-width:0.25;fill:none" />
  <path d="M10.3994,31.7379 A3.57838,3.57838 0 0,0 9.62272,32.815 " style="stroke:rgb(0,0,0);stroke-width:0.25;fill:none" />
  <path d="M9.62271,32.815 L9.43693,33.2288" style="stroke:rgb(0,0,0);stroke-width:0.25;fill:none" />
  <path d="M9.43693,33.2288 L9.30797,33.5848" style="stroke:rgb(0,0,0);stroke-width:0.25;fill:none" />
  <path d="M9.30797,33.5848 L9.19446,33.985" style="stroke:rgb(0,0,0);stroke-width:0.25;fill:none" />
  <path d="M9.19446,33.985 L9.08596,34.558" style="stroke:rgb(0,0,0);stroke-width:0.25;fill:none" />
  <path d="M9.08596,34.558 L9.04554,34.9692" style="stroke:rgb(0,0,0);stroke-width:0.25;fill:none" />
  <path d="M13.2062,31.4687 L13.5801,36.3156" style="stroke:rgb(0,0,0);stroke-width:0.25;fill:none" />
  <path d="M13.5801,36.3156 L16.5514,31.4687" style="stroke:rgb(0,0,0);stroke-width:0.25;fill:none" />
  <path d="M4.11935,39.4973 L1.88917,39.4973" style="stroke:rgb(0,0,0);stroke-width:0.25;fill:none" />
  <path d="M1.88917,39.4973 L1.31194,41.6515" style="stroke:rgb(0,0,0);stroke-width:0.25;fill:none" />
  <path d="M1.31194,41.6515 L2.63388,41.6515" style="stroke:rgb(0,0,0);stroke-width:0.25;fill:none" />
  <path d="M2.63388,41.6515 A0.696931,0.696931 0 0,1 3.30706,42.5288 " style="stroke:rgb(0,0,0);stroke-width:0.25;fill:none" />
  <path d="M3.30706,42.5288 L3.05566,43.4669" style="stroke:rgb(0,0,0);stroke-width:0.25;fill:none" />
  <path d="M3.0557,43.4669 A1.18367,1.18367 0 0,1 1.91236,44.3442 " style="stroke:rgb(0,0,0);stroke-width:0.25;fill:none" />
  <path d="M1.91236,44.3442 L0.59042,44.3442" style="stroke:rgb(0,0,0);stroke-width:0.25;fill:none" />
  <path d="M4.87154,42.9979 A2.03643,2.03643 0 0,0 5.071,44.075 " style="stroke:rgb(0,0,0);stroke-width:0.25;fill:none" />
  <path d="M5.07094,44.0749 A0.511492,0.511492 0 0,0 5.50963,44.3442 " style="stroke:rgb(0,0,0);stroke-width:0.25;fill:none" />
  <path d="M5.50966,44.3442 A0.951284,0.951284 0 0,0 6.09264,44.0749 " style="stroke:rgb(0,0,0);stroke-width:0.25;fill:none" />
  <path d="M6.09266,44.0749 A3.57838,3.57838 0 0,0 6.86932,42.9978 " style="stroke:rgb(0,0,0);stroke-width:0.25;fill:none" />
  <path d="M6.86933,42.9979 L7.0551,42.584" style="stroke:rgb(0,0,0);stroke-width:0.25;fill:none" />
  <path d="M7.0551,42.584 L7.18406,42.2281" style="stroke:rgb(0,0,0);stroke-width:0.25;fill:none" />
  <path d="M7.18406,42.2281 L7.29758,41.8279" style="stroke:rgb(0,0,0);stroke-width:0.25;fill:none" />
  <path d="M7.29758,41.8279 L7.40608,41.2548" style="stroke:rgb(0,0,0);stroke-width:0.25;fill:none" />
  <path d="M7.40608,41.2548 L7.4465,40.8437" style="stroke:rgb(0,0,0);stroke-width:0.25;fill:none" />
  <path d="M7.44656,40.8433 A2.03621,2.03621 0 0,0 7.2471,39.7665 " style="stroke:rgb(0,0,0);stroke-width:0.25;fill:none" />
  <path d="M7.24703,39.7665 A0.511492,0.511492 0 0,0 6.80836,39.4973 " style="stroke:rgb(0,0,0);stroke-width:0.25;fill:none" />
  <path d="M6.80838,39.4973 A0.951284,0.951284 0 0,0 6.22538,39.7666 " style="stroke:rgb(0,0,0);stroke-width:0.25;fill:none" />
  <path d="M6.22537,39.7666 A3.57838,3.57838 0 0,0 5.44871,40.8437 " style="stroke:rgb(0,0,0);stroke-width:0.25;fill:none" />
  <path d="M5.4487,40.8437 L5.26293,41.2575" style="stroke:rgb(0,0,0);stroke-width:0.25;fill:none" />
  <path d="M5.26293,41.2575 L5.13397,41.6134" style="stroke:rgb(0,0,0);stroke-width:0.25;fill:none" />
  <path d="M5.13397,41.6134 L5.02045,42.0136" style="stroke:rgb(0,0,0);stroke-width:0.25;fill:none" />
  <path d="M5.02045,42.0136 L4.91195,42.5867" style="stroke:rgb(0,0,0);stroke-width:0.25;fill:none" />
  <path d="M4.91195,42.5867 L4.87153,42.9979" style="stroke:rgb(0,0,0);stroke-width:0.25;fill:none" />
  <path d="M9.0321,39.4973 L7.73341,44.3442" style="stroke:rgb(0,0,0);stroke-width:0.25;fill:none" />
  <path d="M10.5211,44.3442 L11.8199,39.4973" style="stroke:rgb(0,0,0);stroke-width:0.25;fill:none" />
  <path d="M8.45493,41.6515 L11.2427,41.6515" style="stroke:rgb(0,0,0);stroke-width:0.25;fill:none" />
  <path d="M12.9645,41.1129 L15.1947,41.1129" style="stroke:rgb(0,0,0);stroke-width:0.25;fill:none" />
  <path d="M15.1947,41.1129 L12.0987,44.3442" style="stroke:rgb(0,0,0);stroke-width:0.25;fill:none" />
  <path d="M12.0987,44.3442 L14.3288,44.3442" style="stroke:rgb(0,0,0);stroke-width:0.25;fill:none" />
  <path d="M61.2754,30.8216 A0.700277,0.700277 0 0,1 61.9674,31.6295 " style="stroke:rgb(0,0,0);stroke-width:0.25;fill:none" />
  <path d="M61.9673,31.6294 L61.8281,32.1494" style="stroke:rgb(0,0,0);stroke-width:0.25;fill:none" />
  <path d="M61.8281,32.1493 A1.12401,1.12401 0 0,1 60.8641,32.9758 " style="stroke:rgb(0,0,0);stroke-width:0.25;fill:none" />
  <path d="M60.8641,32.9759 L60.3977,32.9759" style="stroke:rgb(0,0,0);stroke-width:0.25;fill:none" />
  <path d="M60.3977,32.9759 A1.11509,1.11509 0 0,0 59.3206,33.8023 " style="stroke:rgb(0,0,0);stroke-width:0.25;fill:none" />
  <path d="M59.3207,33.8023 L59.0557,34.7913" style="stroke:rgb(0,0,0);stroke-width:0.25;fill:none" />
  <path d="M59.0557,34.7913 A0.696931,0.696931 0 0,0 59.7289,35.6686 " style="stroke:rgb(0,0,0);stroke-width:0.25;fill:none" />
  <path d="M59.7289,35.6686 L60.1951,35.6686" style="stroke:rgb(0,0,0);stroke-width:0.25;fill:none" />
  <path d="M60.1951,35.6686 A1.11509,1.11509 0 0,0 61.2722,34.8421 " style="stroke:rgb(0,0,0);stroke-width:0.25;fill:none" />
  <path d="M61.2722,34.8421 L61.5372,33.8532" style="stroke:rgb(0,0,0);stroke-width:0.25;fill:none" />
  <path d="M61.5372,33.8532 A0.696931,0.696931 0 0,0 60.864,32.9759 " style="stroke:rgb(0,0,0);stroke-width:0.25;fill:none" />
  <path d="M60.8641,32.9759 L60.5634,32.9759" style="stroke:rgb(0,0,0);stroke-width:0.25;fill:none" />
  <path d="M60.5634,32.9759 A0.696931,0.696931 0 0,1 59.8903,32.0985 " style="stroke:rgb(0,0,0);stroke-width:0.25;fill:none" />
  <path d="M59.8903,32.0985 L60.0107,31.6481" style="stroke:rgb(0,0,0);stroke-width:0.25;fill:none" />
  <path d="M60.0109,31.6478 A1.11459,1.11459 0 0,1 61.0875,30.8217 " style="stroke:rgb(0,0,0);stroke-width:0.25;fill:none" />
  <path d="M61.0879,30.8217 L61.2754,30.8217" style="stroke:rgb(0,0,0);stroke-width:0.25;fill:none" />
  <path d="M63.5532,30.8217 L63.9271,35.6686" style="stroke:rgb(0,0,0);stroke-width:0.25;fill:none" />
  <path d="M63.9271,35.6686 L66.8985,30.8217" style="stroke:rgb(0,0,0);stroke-width:0.25;fill:none" />
  <path d="M58.9807,38.8503 L56.7505,38.8503" style="stroke:rgb(0,0,0);stroke-width:0.25;fill:none" />
  <path d="M56.7505,38.8503 L56.1733,41.0045" style="stroke:rgb(0,0,0);stroke-width:0.25;fill:none" />
  <path d="M56.1733,41.0045 L57.4952,41.0045" style="stroke:rgb(0,0,0);stroke-width:0.25;fill:none" />
  <path d="M57.4952,41.0045 A0.696931,0.696931 0 0,1 58.1684,41.8818 " style="stroke:rgb(0,0,0);stroke-width:0.25;fill:none" />
  <path d="M58.1684,41.8818 L57.917,42.8199" style="stroke:rgb(0,0,0);stroke-width:0.25;fill:none" />
  <path d="M57.917,42.8199 A1.18367,1.18367 0 0,1 56.7737,43.6972 " style="stroke:rgb(0,0,0);stroke-width:0.25;fill:none" />
  <path d="M56.7737,43.6972 L55.4518,43.6972" style="stroke:rgb(0,0,0);stroke-width:0.25;fill:none" />
  <path d="M59.7329,42.3509 A2.03643,2.03643 0 0,0 59.9323,43.428 " style="stroke:rgb(0,0,0);stroke-width:0.25;fill:none" />
  <path d="M59.9323,43.4279 A0.511492,0.511492 0 0,0 60.371,43.6972 " style="stroke:rgb(0,0,0);stroke-width:0.25;fill:none" />
  <path d="M60.371,43.6972 A0.951284,0.951284 0 0,0 60.954,43.4279 " style="stroke:rgb(0,0,0);stroke-width:0.25;fill:none" />
  <path d="M60.954,43.4279 A3.57838,3.57838 0 0,0 61.7307,42.3508 " style="stroke:rgb(0,0,0);stroke-width:0.25;fill:none" />
  <path d="M61.7307,42.3509 L61.9164,41.9371" style="stroke:rgb(0,0,0);stroke-width:0.25;fill:none" />
  <path d="M61.9164,41.9371 L62.0454,41.5811" style="stroke:rgb(0,0,0);stroke-width:0.25;fill:none" />
  <path d="M62.0454,41.5811 L62.1589,41.1809" style="stroke:rgb(0,0,0);stroke-width:0.25;fill:none" />
  <path d="M62.1589,41.1809 L62.2674,40.6078" style="stroke:rgb(0,0,0);stroke-width:0.25;fill:none" />
  <path d="M62.2674,40.6078 L62.3078,40.1967" style="stroke:rgb(0,0,0);stroke-width:0.25;fill:none" />
  <path d="M62.3079,40.1963 A2.03621,2.03621 0 0,0 62.1084,39.1195 " style="stroke:rgb(0,0,0);stroke-width:0.25;fill:none" />
  <path d="M62.1084,39.1196 A0.511492,0.511492 0 0,0 61.6697,38.8503 " style="stroke:rgb(0,0,0);stroke-width:0.25;fill:none" />
  <path d="M61.6697,38.8503 A0.951284,0.951284 0 0,0 61.0867,39.1196 " style="stroke:rgb(0,0,0);stroke-width:0.25;fill:none" />
  <path d="M61.0867,39.1196 A3.57838,3.57838 0 0,0 60.31,40.1967 " style="stroke:rgb(0,0,0);stroke-width:0.25;fill:none" />
  <path d="M60.31,40.1967 L60.1243,40.6105" style="stroke:rgb(0,0,0);stroke-width:0.25;fill:none" />
  <path d="M60.1243,40.6105 L59.9953,40.9664" style="stroke:rgb(0,0,0);stroke-width:0.25;fill:none" />
  <path d="M59.9953,40.9664 L59.8818,41.3666" style="stroke:rgb(0,0,0);stroke-width:0.25;fill:none" />
  <path d="M59.8818,41.3666 L59.7733,41.9397" style="stroke:rgb(0,0,0);stroke-width:0.25;fill:none" />
  <path d="M59.7733,41.9397 L59.7329,42.3509" style="stroke:rgb(0,0,0);stroke-width:0.25;fill:none" />
  <path d="M63.8934,38.8503 L62.5947,43.6972" style="stroke:rgb(0,0,0);stroke-width:0.25;fill:none" />
  <path d="M65.3825,43.6972 L66.6812,38.8503" style="stroke:rgb(0,0,0);stroke-width:0.25;fill:none" />
  <path d="M63.3163,41.0045 L66.104,41.0045" style="stroke:rgb(0,0,0);stroke-width:0.25;fill:none" />
  <path d="M67.8259,40.4659 L70.056,40.4659" style="stroke:rgb(0,0,0);stroke-width:0.25;fill:none" />
  <path d="M70.056,40.4659 L66.96,43.6972" style="stroke:rgb(0,0,0);stroke-width:0.25;fill:none" />
  <path d="M66.96,43.6972 L69.1902,43.6972" style="stroke:rgb(0,0,0);stroke-width:0.25;fill:none" />
  <path d="M43.4708,1.06176 L46.2586,1.06176" style="stroke:rgb(0,0,0);stroke-width:0.25;fill:none" />
  <path d="M44.8647,1.06176 L43.566,5.90867" style="stroke:rgb(0,0,0);stroke-width:0.25;fill:none" />
  <path d="M232.695,57.8926 L232.695,77.9642" style="stroke:rgb(0,0,0);stroke-width:0.25;fill:none" />
  <path d="M232.695,77.9642 L224.666,77.9642" style="stroke:rgb(0,0,0);stroke-width:0.25;fill:none" />
  <path d="M224.666,57.8926 L232.695,57.8926" style="stroke:rgb(0,0,0);stroke-width:0.25;fill:none" />
  <path d="M224.666,57.8926 L224.666,77.9642" style="stroke:rgb(0,0,0);stroke-width:0.25;fill:none" />
  <path d="M228.68,57.8926 L228.68,37.8209" style="stroke:rgb(0,0,0);stroke-width:0.25;fill:none" />
  <path d="M228.68,77.9642 L228.68,98.0358" style="stroke:rgb(0,0,0);stroke-width:0.25;fill:none" />
  <path d="M198.573,65.9212 L198.573,47.8567" style="stroke:rgb(0,0,0);stroke-width:0.25;fill:none" />
  <path d="M198.573,68.932 L198.573,88" style="stroke:rgb(0,0,0);stroke-width:0.25;fill:none" />
  <path d="M191.548,68.932 L205.598,68.932" style="stroke:rgb(0,0,0);stroke-width:0.25;fill:none" />
  <path d="M191.548,65.9212 L205.598,65.9212" style="stroke:rgb(0,0,0);stroke-width:0.25;fill:none" />
  <path d="M198.573,98.0358 L228.68,98.0358" style="stroke:rgb(0,0,0);stroke-width:0.25;fill:none" />
  <path d="M198.573,47.8567 L198.573,37.8209" style="stroke:rgb(0,0,0);stroke-width:0.25;fill:none" />
  <path d="M198.573,88 L198.573,98.0358" style="stroke:rgb(0,0,0);stroke-width:0.25;fill:none" />
  <path d="M212.549,65.5904 L211.175,65.5904" style="stroke:rgb(0,0,0);stroke-width:0.25;fill:none" />
  <path d="M211.175,65.5904 A1.11509,1.11509 0 0,0 210.098,66.4169 " style="stroke:rgb(0,0,0);stroke-width:0.25;fill:none" />
  <path d="M210.098,66.4169 L209.397,69.0337" style="stroke:rgb(0,0,0);stroke-width:0.25;fill:none" />
  <path d="M209.397,69.0336 A1.11509,1.11509 0 0,0 210.474,70.4373 " style="stroke:rgb(0,0,0);stroke-width:0.25;fill:none" />
  <path d="M210.474,70.4373 L211.251,70.4373" style="stroke:rgb(0,0,0);stroke-width:0.25;fill:none" />
  <path d="M198.573,98.0358 L78.1433,98.0358" style="stroke:rgb(0,0,0);stroke-width:0.25;fill:none" />
  <path d="M178.501,37.8209 A2.50895,2.50895 0 0,0 173.483,37.8209 " style="stroke:rgb(0,0,0);stroke-width:0.25;fill:none" />
  <path d="M173.483,37.8209 A2.50895,2.50895 0 0,0 168.466,37.8209 " style="stroke:rgb(0,0,0);stroke-width:0.25;fill:none" />
  <path d="M168.466,37.8209 A2.50895,2.50895 0 0,0 163.448,37.8209 " style="stroke:rgb(0,0,0);stroke-width:0.25;fill:none" />
  <path d="M163.448,37.8209 A2.50895,2.50895 0 0,0 158.43,37.8209 " style="stroke:rgb(0,0,0);stroke-width:0.25;fill:none" />
  <path d="M158.43,37.8209 L148.394,37.8209" style="stroke:rgb(0,0,0);stroke-width:0.25;fill:none" />
  <path d="M178.501,37.8209 L188.537,37.8209" style="stroke:rgb(0,0,0);stroke-width:0.25;fill:none" />
  <path d="M134.914,37.8209 L148.394,37.8209" style="stroke:rgb(0,0,0);stroke-width:0.25;fill:none" />
  <path d="M228.68,37.8209 L188.537,37.8209" style="stroke:rgb(0,0,0);stroke-width:0.25;fill:none" />
  <path d="M124.27,48.4655 L113.625,52.0137" style="stroke:rgb(0,0,0);stroke-width:0.25;fill:none" />
  <path d="M113.625,52.0137 L120.722,59.1101" style="stroke:rgb(0,0,0);stroke-width:0.25;fill:none" />
  <path d="M120.722,59.1101 L124.27,48.4655" style="stroke:rgb(0,0,0);stroke-width:0.25;fill:none" />
  <path d="M124.27,48.4655 L120.722,44.9173" style="stroke:rgb(0,0,0);stroke-width:0.25;fill:none" />
  <path d="M124.27,48.4655 L127.818,52.0137" style="stroke:rgb(0,0,0);stroke-width:0.25;fill:none" />
  <path d="M124.27,48.4655 L134.914,37.8209" style="stroke:rgb(0,0,0);stroke-width:0.25;fill:none" />
  <path d="M117.173,55.5619 L106.529,66.2065" style="stroke:rgb(0,0,0);stroke-width:0.25;fill:none" />
  <path d="M124.27,27.1763 L120.722,16.5318" style="stroke:rgb(0,0,0);stroke-width:0.25;fill:none" />
  <path d="M120.722,16.5318 L113.625,23.6282" style="stroke:rgb(0,0,0);stroke-width:0.25;fill:none" />
  <path d="M113.625,23.6282 L124.27,27.1763" style="stroke:rgb(0,0,0);stroke-width:0.25;fill:none" />
  <path d="M124.27,27.1763 L127.818,23.6282" style="stroke:rgb(0,0,0);stroke-width:0.25;fill:none" />
  <path d="M124.27,27.1763 L120.722,30.7245" style="stroke:rgb(0,0,0);stroke-width:0.25;fill:none" />
  <path d="M124.27,27.1763 L134.914,37.8209" style="stroke:rgb(0,0,0);stroke-width:0.25;fill:none" />
  <path d="M117.173,20.08 L106.529,9.43537" style="stroke:rgb(0,0,0);stroke-width:0.25;fill:none" />
  <path d="M95.8842,55.5619 L92.336,44.9173" style="stroke:rgb(0,0,0);stroke-width:0.25;fill:none" />
  <path d="M92.336,44.9173 L85.2396,52.0137" style="stroke:rgb(0,0,0);stroke-width:0.25;fill:none" />
  <path d="M85.2396,52.0137 L95.8842,55.5619" style="stroke:rgb(0,0,0);stroke-width:0.25;fill:none" />
  <path d="M95.8842,55.5619 L99.4324,52.0137" style="stroke:rgb(0,0,0);stroke-width:0.25;fill:none" />
  <path d="M95.8842,55.5619 L92.336,59.1101" style="stroke:rgb(0,0,0);stroke-width:0.25;fill:none" />
  <path d="M95.8842,55.5619 L106.529,66.2065" style="stroke:rgb(0,0,0);stroke-width:0.25;fill:none" />
  <path d="M88.7878,48.4655 L78.1433,37.8209" style="stroke:rgb(0,0,0);stroke-width:0.25;fill:none" />
  <path d="M95.8842,20.08 L85.2396,23.6282" style="stroke:rgb(0,0,0);stroke-width:0.25;fill:none" />
  <path d="M85.2396,23.6282 L92.336,30.7245" style="stroke:rgb(0,0,0);stroke-width:0.25;fill:none" />
  <path d="M92.336,30.7245 L95.8842,20.08" style="stroke:rgb(0,0,0);stroke-width:0.25;fill:none" />
  <path d="M95.8842,20.08 L92.336,16.5318" style="stroke:rgb(0,0,0);stroke-width:0.25;fill:none" />
  <path d="M95.8842,20.08 L99.4324,23.6282" style="stroke:rgb(0,0,0);stroke-width:0.25;fill:none" />
  <path d="M95.8842,20.08 L106.529,9.43537" style="stroke:rgb(0,0,0);stroke-width:0.25;fill:none" />
  <path d="M88.7878,27.1763 L78.1433,37.8209" style="stroke:rgb(0,0,0);stroke-width:0.25;fill:none" />
  <path d="M236.842,70.4373 L238.141,65.5904" style="stroke:rgb(0,0,0);stroke-width:0.25;fill:none" />
  <path d="M238.141,65.5904 L239.475,65.5904" style="stroke:rgb(0,0,0);stroke-width:0.25;fill:none" />
  <path d="M239.475,65.5904 A1.11509,1.11509 0 0,1 240.552,66.9941 " style="stroke:rgb(0,0,0);stroke-width:0.25;fill:none" />
  <path d="M240.552,66.9941 L240.429,67.4566" style="stroke:rgb(0,0,0);stroke-width:0.25;fill:none" />
  <path d="M240.428,67.4567 A1.11509,1.11509 0 0,1 239.351,68.2831 " style="stroke:rgb(0,0,0);stroke-width:0.25;fill:none" />
  <path d="M239.351,68.2831 L237.419,68.2831" style="stroke:rgb(0,0,0);stroke-width:0.25;fill:none" />
  <path d="M239.092,68.2831 L239.63,70.4373" style="stroke:rgb(0,0,0);stroke-width:0.25;fill:none" />
  <path d="M168.649,25.3617 L167.35,30.2086" style="stroke:rgb(0,0,0);stroke-width:0.25;fill:none" />
  <path d="M167.35,30.2086 L169.581,30.2086" style="stroke:rgb(0,0,0);stroke-width:0.25;fill:none" />
</svg>
