<?xml version="1.0" standalone="yes"?>

<svg width="122mm" height="72mm" viewBox="0 0 122 72" version="1.1"
xmlns="http://www.w3.org/2000/svg" style="stroke-linecap:round">
  <path d="M101,61 L121,61" style="stroke:rgb(0,0,0);stroke-width:0.25;fill:none" />
  <path d="M109,71 L113,71" style="stroke:rgb(0,0,0);stroke-width:0.25;fill:none" />
  <path d="M105,66 L117,66" style="stroke:rgb(0,0,0);stroke-width:0.25;fill:none" />
  <path d="M111,51 L111,61" style="stroke:rgb(0,0,0);stroke-width:0.25;fill:none" />
  <path d="M1,61 L21,61" style="stroke:rgb(0,0,0);stroke-width:0.25;fill:none" />
  <path d="M9,71 L13,71" style="stroke:rgb(0,0,0);stroke-width:0.25;fill:none" />
  <path d="M5,66 L17,66" style="stroke:rgb(0,0,0);stroke-width:0.25;fill:none" />
  <path d="M11,51 L11,61" style="stroke:rgb(0,0,0);stroke-width:0.25;fill:none" />
  <path d="M6,33 L16,33" style="stroke:rgb(0,0,0);stroke-width:0.25;fill:none" />
  <path d="M1,29 L21,29" style="stroke:rgb(0,0,0);stroke-width:0.25;fill:none" />
  <path d="M11,29 L11,21" style="stroke:rgb(0,0,0);stroke-width:0.25;fill:none" />
  <path d="M11,33 L11,41" style="stroke:rgb(0,0,0);stroke-width:0.25;fill:none" />
  <ellipse cx="111" cy="31" rx="10" ry="10" style="stroke:rgb(0,0,0);stroke-width:0.25;fill:none;"/>
  <path d="M118.071,38.0711 L103.929,23.9289" style="stroke:rgb(0,0,0);stroke-width:0.25;fill:none" />
  <path d="M118.071,23.9289 L103.929,38.0711" style="stroke:rgb(0,0,0);stroke-width:0.25;fill:none" />
  <path d="M11,41 L11,51" style="stroke:rgb(0,0,0);stroke-width:0.25;fill:none" />
  <path d="M111,41 L111,51" style="stroke:rgb(0,0,0);stroke-width:0.25;fill:none" />
  <path d="M111,21 L111,1" style="stroke:rgb(0,0,0);stroke-width:0.25;fill:none" />
  <path d="M11,1 L11,21" style="stroke:rgb(0,0,0);stroke-width:0.25;fill:none" />
  <path d="M11,1 L111,1" style="stroke:rgb(0,0,0);stroke-width:0.25;fill:none" />
</svg>
