<?xml version="1.0" standalone="yes"?>

<svg width="93mm" height="79mm" viewBox="0 0 93 79" version="1.1"
xmlns="http://www.w3.org/2000/svg" style="stroke-linecap:round">
  <path d="M72.389,32.8232 L72.389,52.8737" style="stroke:rgb(0,0,0);stroke-width:0.25;fill:none" />
  <path d="M72.389,52.8737 L64.3688,52.8737" style="stroke:rgb(0,0,0);stroke-width:0.25;fill:none" />
  <path d="M64.3688,32.8232 L72.389,32.8232" style="stroke:rgb(0,0,0);stroke-width:0.25;fill:none" />
  <path d="M64.3688,32.8232 L64.3688,52.8737" style="stroke:rgb(0,0,0);stroke-width:0.25;fill:none" />
  <path d="M92.4396,32.8232 L92.4396,52.8737" style="stroke:rgb(0,0,0);stroke-width:0.25;fill:none" />
  <path d="M92.4396,52.8737 L84.4194,52.8737" style="stroke:rgb(0,0,0);stroke-width:0.25;fill:none" />
  <path d="M84.4194,32.8232 L92.4396,32.8232" style="stroke:rgb(0,0,0);stroke-width:0.25;fill:none" />
  <path d="M84.4194,32.8232 L84.4194,52.8737" style="stroke:rgb(0,0,0);stroke-width:0.25;fill:none" />
  <path d="M28.2779,8.76254 L48.3284,8.76254" style="stroke:rgb(0,0,0);stroke-width:0.25;fill:none" />
  <path d="M48.3284,8.76254 L48.3284,16.7827" style="stroke:rgb(0,0,0);stroke-width:0.25;fill:none" />
  <path d="M28.2779,16.7827 L28.2779,8.76254" style="stroke:rgb(0,0,0);stroke-width:0.25;fill:none" />
  <path d="M28.2779,16.7827 L48.3284,16.7827" style="stroke:rgb(0,0,0);stroke-width:0.25;fill:none" />
  <path d="M48.3284,12.7726 L88.4295,12.7726" style="stroke:rgb(0,0,0);stroke-width:0.25;fill:none" />
  <path d="M88.4295,12.7726 L88.4295,32.8232" style="stroke:rgb(0,0,0);stroke-width:0.25;fill:none" />
  <path d="M68.3789,32.8232 L68.3789,12.7726" style="stroke:rgb(0,0,0);stroke-width:0.25;fill:none" />
  <path d="M68.3789,52.8737 L68.3789,72.9242" style="stroke:rgb(0,0,0);stroke-width:0.25;fill:none" />
  <path d="M88.4295,52.8737 L88.4295,72.9242" style="stroke:rgb(0,0,0);stroke-width:0.25;fill:none" />
  <path d="M28.2779,12.7726 L8.22736,12.7726" style="stroke:rgb(0,0,0);stroke-width:0.25;fill:none" />
  <ellipse cx="7.22483" cy="12.7726" rx="1.00253" ry="1.00253" style="stroke:rgb(0,0,0);stroke-width:0.25;fill:none;"/>
  <ellipse cx="7.22483" cy="72.9242" rx="1.00253" ry="1.00253" style="stroke:rgb(0,0,0);stroke-width:0.25;fill:none;"/>
  <path d="M1.54385,15.279 L4.51211,10.4371" style="stroke:rgb(0,0,0);stroke-width:0.25;fill:none" />
  <path d="M4.51211,10.4371 L4.8856,15.279" style="stroke:rgb(0,0,0);stroke-width:0.25;fill:none" />
  <path d="M4.78184,13.934 L2.36837,13.934" style="stroke:rgb(0,0,0);stroke-width:0.25;fill:none" />
  <path d="M2.73688,70.5887 L1.43956,75.4305" style="stroke:rgb(0,0,0);stroke-width:0.25;fill:none" />
  <path d="M1.43956,75.4305 L3.36959,75.4305" style="stroke:rgb(0,0,0);stroke-width:0.25;fill:none" />
  <path d="M3.36959,75.4305 A1.11392,1.11392 0 0,0 4.44555,74.6049 " style="stroke:rgb(0,0,0);stroke-width:0.25;fill:none" />
  <path d="M4.44558,74.6049 L4.56939,74.1428" style="stroke:rgb(0,0,0);stroke-width:0.25;fill:none" />
  <path d="M4.56936,74.1429 A1.11392,1.11392 0 0,0 3.4934,72.7406 " style="stroke:rgb(0,0,0);stroke-width:0.25;fill:none" />
  <path d="M2.16032,72.7406 L4.02558,72.7406" style="stroke:rgb(0,0,0);stroke-width:0.25;fill:none" />
  <path d="M4.02558,72.7406 A0.835439,0.835439 0 0,0 4.83255,72.1214 " style="stroke:rgb(0,0,0);stroke-width:0.25;fill:none" />
  <path d="M4.83255,72.1214 L4.96143,71.6404" style="stroke:rgb(0,0,0);stroke-width:0.25;fill:none" />
  <path d="M4.96143,71.6404 A0.835439,0.835439 0 0,0 4.15446,70.5887 " style="stroke:rgb(0,0,0);stroke-width:0.25;fill:none" />
  <path d="M2.73688,70.5887 L4.15446,70.5887" style="stroke:rgb(0,0,0);stroke-width:0.25;fill:none" />
  <path d="M36.431,5.25369 L37.7283,0.411883" style="stroke:rgb(0,0,0);stroke-width:0.25;fill:none" />
  <path d="M37.7283,0.411883 L39.0614,0.411883" style="stroke:rgb(0,0,0);stroke-width:0.25;fill:none" />
  <path d="M39.0614,0.411883 A1.11392,1.11392 0 0,1 40.1374,1.8141 " style="stroke:rgb(0,0,0);stroke-width:0.25;fill:none" />
  <path d="M40.1374,1.81408 L40.0136,2.27614" style="stroke:rgb(0,0,0);stroke-width:0.25;fill:none" />
  <path d="M40.0136,2.27616 A1.11392,1.11392 0 0,1 38.9376,3.10177 " style="stroke:rgb(0,0,0);stroke-width:0.25;fill:none" />
  <path d="M38.9376,3.10177 L37.0076,3.10177" style="stroke:rgb(0,0,0);stroke-width:0.25;fill:none" />
  <path d="M38.6785,3.10177 L39.2158,5.25369" style="stroke:rgb(0,0,0);stroke-width:0.25;fill:none" />
  <path d="M56.4815,45.3547 L57.7789,40.5129" style="stroke:rgb(0,0,0);stroke-width:0.25;fill:none" />
  <path d="M57.7789,40.5129 L59.1119,40.5129" style="stroke:rgb(0,0,0);stroke-width:0.25;fill:none" />
  <path d="M59.1119,40.5129 A1.11392,1.11392 0 0,1 60.1879,41.9152 " style="stroke:rgb(0,0,0);stroke-width:0.25;fill:none" />
  <path d="M60.1879,41.9151 L60.0641,42.3772" style="stroke:rgb(0,0,0);stroke-width:0.25;fill:none" />
  <path d="M60.0641,42.3772 A1.11392,1.11392 0 0,1 58.9881,43.2028 " style="stroke:rgb(0,0,0);stroke-width:0.25;fill:none" />
  <path d="M58.9881,43.2028 L57.0581,43.2028" style="stroke:rgb(0,0,0);stroke-width:0.25;fill:none" />
  <path d="M58.729,43.2028 L59.2663,45.3547" style="stroke:rgb(0,0,0);stroke-width:0.25;fill:none" />
  <path d="M76.532,45.3547 L77.8294,40.5129" style="stroke:rgb(0,0,0);stroke-width:0.25;fill:none" />
  <path d="M77.8294,40.5129 L79.1625,40.5129" style="stroke:rgb(0,0,0);stroke-width:0.25;fill:none" />
  <path d="M79.1625,40.5129 A1.11392,1.11392 0 0,1 80.2384,41.9152 " style="stroke:rgb(0,0,0);stroke-width:0.25;fill:none" />
  <path d="M80.2385,41.9151 L80.1146,42.3772" style="stroke:rgb(0,0,0);stroke-width:0.25;fill:none" />
  <path d="M80.1146,42.3772 A1.11392,1.11392 0 0,1 79.0387,43.2028 " style="stroke:rgb(0,0,0);stroke-width:0.25;fill:none" />
  <path d="M79.0387,43.2028 L77.1086,43.2028" style="stroke:rgb(0,0,0);stroke-width:0.25;fill:none" />
  <path d="M78.7795,43.2028 L79.3168,45.3547" style="stroke:rgb(0,0,0);stroke-width:0.25;fill:none" />
  <path d="M40.4314,5.25113 L40.9923,4.82076" style="stroke:rgb(0,0,0);stroke-width:0.25;fill:none" />
  <path d="M40.9923,4.82076 L40.4733,6.75748" style="stroke:rgb(0,0,0);stroke-width:0.25;fill:none" />
  <path d="M61.0495,46.8585 L60.1583,46.8585" style="stroke:rgb(0,0,0);stroke-width:0.25;fill:none" />
  <path d="M60.1583,46.8585 L61.3463,45.5767" style="stroke:rgb(0,0,0);stroke-width:0.25;fill:none" />
  <path d="M61.3463,45.5767 A0.389871,0.389871 0 0,0 61.0604,44.9218 " style="stroke:rgb(0,0,0);stroke-width:0.25;fill:none" />
  <path d="M60.9765,44.9218 L61.0604,44.9218" style="stroke:rgb(0,0,0);stroke-width:0.25;fill:none" />
  <path d="M60.9765,44.9218 A0.389871,0.389871 0 0,0 60.5999,45.2108 " style="stroke:rgb(0,0,0);stroke-width:0.25;fill:none" />
  <path d="M80.2654,44.9218 L80.7936,44.9218" style="stroke:rgb(0,0,0);stroke-width:0.25;fill:none" />
  <path d="M80.7936,44.9218 A0.27848,0.27848 0 0,1 81.0626,45.2723 " style="stroke:rgb(0,0,0);stroke-width:0.25;fill:none" />
  <path d="M81.0626,45.2724 L81.0198,45.432" style="stroke:rgb(0,0,0);stroke-width:0.25;fill:none" />
  <path d="M81.0198,45.432 A0.47297,0.47297 0 0,1 80.5629,45.7826 " style="stroke:rgb(0,0,0);stroke-width:0.25;fill:none" />
  <path d="M80.5629,45.7826 L80.2575,45.7826" style="stroke:rgb(0,0,0);stroke-width:0.25;fill:none" />
  <path d="M80.5629,45.7826 A0.27848,0.27848 0 0,1 80.8319,46.1331 " style="stroke:rgb(0,0,0);stroke-width:0.25;fill:none" />
  <path d="M80.8319,46.1331 L80.7315,46.508" style="stroke:rgb(0,0,0);stroke-width:0.25;fill:none" />
  <path d="M80.7315,46.508 A0.47297,0.47297 0 0,1 80.2746,46.8585 " style="stroke:rgb(0,0,0);stroke-width:0.25;fill:none" />
  <path d="M80.2746,46.8585 L79.7464,46.8585" style="stroke:rgb(0,0,0);stroke-width:0.25;fill:none" />
  <path d="M28.2779,68.9141 L48.3284,68.9141" style="stroke:rgb(0,0,0);stroke-width:0.25;fill:none" />
  <path d="M48.3284,68.9141 L48.3284,76.9343" style="stroke:rgb(0,0,0);stroke-width:0.25;fill:none" />
  <path d="M28.2779,76.9343 L28.2779,68.9141" style="stroke:rgb(0,0,0);stroke-width:0.25;fill:none" />
  <path d="M28.2779,76.9343 L48.3284,76.9343" style="stroke:rgb(0,0,0);stroke-width:0.25;fill:none" />
  <path d="M48.3284,72.9242 L88.4295,72.9242" style="stroke:rgb(0,0,0);stroke-width:0.25;fill:none" />
  <path d="M28.2779,72.9242 L8.22736,72.9242" style="stroke:rgb(0,0,0);stroke-width:0.25;fill:none" />
  <path d="M36.431,65.4053 L37.7283,60.5635" style="stroke:rgb(0,0,0);stroke-width:0.25;fill:none" />
  <path d="M37.7283,60.5635 L39.0614,60.5635" style="stroke:rgb(0,0,0);stroke-width:0.25;fill:none" />
  <path d="M39.0614,60.5635 A1.11392,1.11392 0 0,1 40.1374,61.9657 " style="stroke:rgb(0,0,0);stroke-width:0.25;fill:none" />
  <path d="M40.1374,61.9657 L40.0136,62.4277" style="stroke:rgb(0,0,0);stroke-width:0.25;fill:none" />
  <path d="M40.0136,62.4277 A1.11392,1.11392 0 0,1 38.9376,63.2533 " style="stroke:rgb(0,0,0);stroke-width:0.25;fill:none" />
  <path d="M38.9376,63.2533 L37.0076,63.2533" style="stroke:rgb(0,0,0);stroke-width:0.25;fill:none" />
  <path d="M38.6785,63.2533 L39.2158,65.4053" style="stroke:rgb(0,0,0);stroke-width:0.25;fill:none" />
  <path d="M40.531,66.9091 L40.7616,66.0483" style="stroke:rgb(0,0,0);stroke-width:0.25;fill:none" />
  <path d="M40.9805,66.4787 L39.8666,66.4787" style="stroke:rgb(0,0,0);stroke-width:0.25;fill:none" />
  <path d="M39.8666,66.4787 L40.7158,64.9723" style="stroke:rgb(0,0,0);stroke-width:0.25;fill:none" />
</svg>
