<?xml version="1.0" standalone="yes"?>

<svg width="93mm" height="77mm" viewBox="0 0 93 77" version="1.1"
xmlns="http://www.w3.org/2000/svg" style="stroke-linecap:round">
  <path d="M72.3507,32.8406 L72.3507,52.8861" style="stroke:rgb(0,0,0);stroke-width:0.25;fill:none" />
  <path d="M72.3507,52.8861 L64.3324,52.8861" style="stroke:rgb(0,0,0);stroke-width:0.25;fill:none" />
  <path d="M64.3324,32.8406 L72.3507,32.8406" style="stroke:rgb(0,0,0);stroke-width:0.25;fill:none" />
  <path d="M64.3324,32.8406 L64.3324,52.8861" style="stroke:rgb(0,0,0);stroke-width:0.25;fill:none" />
  <path d="M92.3962,32.8406 L92.3962,52.8861" style="stroke:rgb(0,0,0);stroke-width:0.25;fill:none" />
  <path d="M92.3962,52.8861 L84.378,52.8861" style="stroke:rgb(0,0,0);stroke-width:0.25;fill:none" />
  <path d="M84.378,32.8406 L92.3962,32.8406" style="stroke:rgb(0,0,0);stroke-width:0.25;fill:none" />
  <path d="M84.378,32.8406 L84.378,52.8861" style="stroke:rgb(0,0,0);stroke-width:0.25;fill:none" />
  <path d="M28.2505,8.78596 L48.296,8.78596" style="stroke:rgb(0,0,0);stroke-width:0.25;fill:none" />
  <path d="M48.296,8.78596 L48.296,16.8042" style="stroke:rgb(0,0,0);stroke-width:0.25;fill:none" />
  <path d="M28.2505,16.8042 L28.2505,8.78596" style="stroke:rgb(0,0,0);stroke-width:0.25;fill:none" />
  <path d="M28.2505,16.8042 L48.296,16.8042" style="stroke:rgb(0,0,0);stroke-width:0.25;fill:none" />
  <path d="M48.296,12.7951 L88.3871,12.7951" style="stroke:rgb(0,0,0);stroke-width:0.25;fill:none" />
  <path d="M88.3871,12.7951 L88.3871,32.8406" style="stroke:rgb(0,0,0);stroke-width:0.25;fill:none" />
  <path d="M68.3416,32.8406 L68.3416,12.7951" style="stroke:rgb(0,0,0);stroke-width:0.25;fill:none" />
  <path d="M68.3416,52.8861 L68.3416,72.9317" style="stroke:rgb(0,0,0);stroke-width:0.25;fill:none" />
  <path d="M88.3871,52.8861 L88.3871,72.9317" style="stroke:rgb(0,0,0);stroke-width:0.25;fill:none" />
  <path d="M88.3871,72.9317 L8.20493,72.9317" style="stroke:rgb(0,0,0);stroke-width:0.25;fill:none" />
  <path d="M28.2505,12.7951 L8.20493,12.7951" style="stroke:rgb(0,0,0);stroke-width:0.25;fill:none" />
  <ellipse cx="7.20266" cy="12.7951" rx="1.00228" ry="1.00228" style="stroke:rgb(0,0,0);stroke-width:0.25;fill:none;"/>
  <ellipse cx="7.20266" cy="72.9317" rx="1.00228" ry="1.00228" style="stroke:rgb(0,0,0);stroke-width:0.25;fill:none;"/>
  <path d="M1.52309,15.3008 L4.4906,10.4602" style="stroke:rgb(0,0,0);stroke-width:0.25;fill:none" />
  <path d="M4.4906,10.4602 L4.86401,15.3008" style="stroke:rgb(0,0,0);stroke-width:0.25;fill:none" />
  <path d="M4.76027,13.9562 L2.3474,13.9562" style="stroke:rgb(0,0,0);stroke-width:0.25;fill:none" />
  <path d="M2.71582,70.5968 L1.41882,75.4374" style="stroke:rgb(0,0,0);stroke-width:0.25;fill:none" />
  <path d="M1.41882,75.4374 L3.34837,75.4374" style="stroke:rgb(0,0,0);stroke-width:0.25;fill:none" />
  <path d="M3.34837,75.4374 A1.11364,1.11364 0 0,0 4.42407,74.612 " style="stroke:rgb(0,0,0);stroke-width:0.25;fill:none" />
  <path d="M4.42409,74.612 L4.54787,74.15" style="stroke:rgb(0,0,0);stroke-width:0.25;fill:none" />
  <path d="M4.54785,74.15 A1.11364,1.11364 0 0,0 3.47215,72.7482 " style="stroke:rgb(0,0,0);stroke-width:0.25;fill:none" />
  <path d="M2.1394,72.7482 L4.00419,72.7482" style="stroke:rgb(0,0,0);stroke-width:0.25;fill:none" />
  <path d="M4.00419,72.7482 A0.835231,0.835231 0 0,0 4.81097,72.1291 " style="stroke:rgb(0,0,0);stroke-width:0.25;fill:none" />
  <path d="M4.81097,72.1291 L4.93982,71.6482" style="stroke:rgb(0,0,0);stroke-width:0.25;fill:none" />
  <path d="M4.93981,71.6482 A0.835231,0.835231 0 0,0 4.13304,70.5968 " style="stroke:rgb(0,0,0);stroke-width:0.25;fill:none" />
  <path d="M2.71582,70.5968 L4.13304,70.5968" style="stroke:rgb(0,0,0);stroke-width:0.25;fill:none" />
  <path d="M36.4015,5.27799 L37.6986,0.437382" style="stroke:rgb(0,0,0);stroke-width:0.25;fill:none" />
  <path d="M37.6986,0.437382 L39.0313,0.437382" style="stroke:rgb(0,0,0);stroke-width:0.25;fill:none" />
  <path d="M39.0313,0.437382 A1.11364,1.11364 0 0,1 40.107,1.83925 " style="stroke:rgb(0,0,0);stroke-width:0.25;fill:none" />
  <path d="M40.107,1.83923 L39.9833,2.30117" style="stroke:rgb(0,0,0);stroke-width:0.25;fill:none" />
  <path d="M39.9832,2.30119 A1.11364,1.11364 0 0,1 38.9075,3.1266 " style="stroke:rgb(0,0,0);stroke-width:0.25;fill:none" />
  <path d="M38.9075,3.1266 L36.978,3.1266" style="stroke:rgb(0,0,0);stroke-width:0.25;fill:none" />
  <path d="M38.6485,3.1266 L39.1856,5.27799" style="stroke:rgb(0,0,0);stroke-width:0.25;fill:none" />
  <path d="M56.4471,45.3691 L57.7441,40.5285" style="stroke:rgb(0,0,0);stroke-width:0.25;fill:none" />
  <path d="M57.7441,40.5285 L59.0769,40.5285" style="stroke:rgb(0,0,0);stroke-width:0.25;fill:none" />
  <path d="M59.0769,40.5285 A1.11364,1.11364 0 0,1 60.1526,41.9303 " style="stroke:rgb(0,0,0);stroke-width:0.25;fill:none" />
  <path d="M60.1526,41.9303 L60.0288,42.3923" style="stroke:rgb(0,0,0);stroke-width:0.25;fill:none" />
  <path d="M60.0288,42.3923 A1.11364,1.11364 0 0,1 58.9531,43.2177 " style="stroke:rgb(0,0,0);stroke-width:0.25;fill:none" />
  <path d="M58.9531,43.2177 L57.0235,43.2177" style="stroke:rgb(0,0,0);stroke-width:0.25;fill:none" />
  <path d="M58.694,43.2177 L59.2312,45.3691" style="stroke:rgb(0,0,0);stroke-width:0.25;fill:none" />
  <path d="M76.4926,45.3691 L77.7897,40.5285" style="stroke:rgb(0,0,0);stroke-width:0.25;fill:none" />
  <path d="M77.7897,40.5285 L79.1224,40.5285" style="stroke:rgb(0,0,0);stroke-width:0.25;fill:none" />
  <path d="M79.1224,40.5285 A1.11364,1.11364 0 0,1 80.1981,41.9303 " style="stroke:rgb(0,0,0);stroke-width:0.25;fill:none" />
  <path d="M80.1981,41.9303 L80.0743,42.3923" style="stroke:rgb(0,0,0);stroke-width:0.25;fill:none" />
  <path d="M80.0743,42.3923 A1.11364,1.11364 0 0,1 78.9986,43.2177 " style="stroke:rgb(0,0,0);stroke-width:0.25;fill:none" />
  <path d="M78.9986,43.2177 L77.0691,43.2177" style="stroke:rgb(0,0,0);stroke-width:0.25;fill:none" />
  <path d="M78.7395,43.2177 L79.2767,45.3691" style="stroke:rgb(0,0,0);stroke-width:0.25;fill:none" />
  <path d="M40.401,5.27543 L40.9617,4.84516" style="stroke:rgb(0,0,0);stroke-width:0.25;fill:none" />
  <path d="M40.9617,4.84516 L40.4429,6.78141" style="stroke:rgb(0,0,0);stroke-width:0.25;fill:none" />
  <path d="M61.0139,46.8725 L60.123,46.8725" style="stroke:rgb(0,0,0);stroke-width:0.25;fill:none" />
  <path d="M60.123,46.8725 L61.3107,45.591" style="stroke:rgb(0,0,0);stroke-width:0.25;fill:none" />
  <path d="M61.3107,45.591 A0.389774,0.389774 0 0,0 61.0248,44.9362 " style="stroke:rgb(0,0,0);stroke-width:0.25;fill:none" />
  <path d="M60.9409,44.9362 L61.0248,44.9362" style="stroke:rgb(0,0,0);stroke-width:0.25;fill:none" />
  <path d="M60.9409,44.9362 A0.389774,0.389774 0 0,0 60.5644,45.2251 " style="stroke:rgb(0,0,0);stroke-width:0.25;fill:none" />
  <path d="M80.225,44.9362 L80.7531,44.9362" style="stroke:rgb(0,0,0);stroke-width:0.25;fill:none" />
  <path d="M80.7531,44.9362 A0.27841,0.27841 0 0,1 81.0221,45.2867 " style="stroke:rgb(0,0,0);stroke-width:0.25;fill:none" />
  <path d="M81.022,45.2867 L80.9793,45.4463" style="stroke:rgb(0,0,0);stroke-width:0.25;fill:none" />
  <path d="M80.9793,45.4463 A0.472852,0.472852 0 0,1 80.5225,45.7968 " style="stroke:rgb(0,0,0);stroke-width:0.25;fill:none" />
  <path d="M80.5225,45.7968 L80.2172,45.7968" style="stroke:rgb(0,0,0);stroke-width:0.25;fill:none" />
  <path d="M80.5225,45.7968 A0.27841,0.27841 0 0,1 80.7915,46.1473 " style="stroke:rgb(0,0,0);stroke-width:0.25;fill:none" />
  <path d="M80.7915,46.1473 L80.691,46.522" style="stroke:rgb(0,0,0);stroke-width:0.25;fill:none" />
  <path d="M80.691,46.522 A0.472852,0.472852 0 0,1 80.2343,46.8725 " style="stroke:rgb(0,0,0);stroke-width:0.25;fill:none" />
  <path d="M80.2343,46.8725 L79.7062,46.8725" style="stroke:rgb(0,0,0);stroke-width:0.25;fill:none" />
</svg>
