<?xml version="1.0" standalone="yes"?>

<svg width="124mm" height="62mm" viewBox="0 0 124 62" version="1.1"
xmlns="http://www.w3.org/2000/svg" style="stroke-linecap:round">
  <path d="M25,33 L35,33" style="stroke:rgb(0,0,0);stroke-width:0.25;fill:none" />
  <path d="M20,29 L40,29" style="stroke:rgb(0,0,0);stroke-width:0.25;fill:none" />
  <path d="M30,29 L30,21" style="stroke:rgb(0,0,0);stroke-width:0.25;fill:none" />
  <path d="M30,33 L30,41" style="stroke:rgb(0,0,0);stroke-width:0.25;fill:none" />
  <path d="M94,21 L94,41" style="stroke:rgb(0,0,0);stroke-width:0.25;fill:none" />
  <path d="M94,41 L86,41" style="stroke:rgb(0,0,0);stroke-width:0.25;fill:none" />
  <path d="M86,21 L94,21" style="stroke:rgb(0,0,0);stroke-width:0.25;fill:none" />
  <path d="M86,21 L86,41" style="stroke:rgb(0,0,0);stroke-width:0.25;fill:none" />
  <path d="M90,21 L90,11" style="stroke:rgb(0,0,0);stroke-width:0.25;fill:none" />
  <path d="M90,41 L90,51" style="stroke:rgb(0,0,0);stroke-width:0.25;fill:none" />
  <path d="M30,41 L30,61" style="stroke:rgb(0,0,0);stroke-width:0.25;fill:none" />
  <path d="M30,61 L90,61" style="stroke:rgb(0,0,0);stroke-width:0.25;fill:none" />
  <path d="M90,61 L90,51" style="stroke:rgb(0,0,0);stroke-width:0.25;fill:none" />
  <path d="M90,11 L90,1" style="stroke:rgb(0,0,0);stroke-width:0.25;fill:none" />
  <path d="M90,1 L30,1" style="stroke:rgb(0,0,0);stroke-width:0.25;fill:none" />
  <path d="M30,1 L30,21" style="stroke:rgb(0,0,0);stroke-width:0.25;fill:none" />
  <path d="M40,41 L39,44" style="stroke:rgb(0,0,0);stroke-width:0.25;fill:none" />
  <path d="M39,44 L41,44" style="stroke:rgb(0,0,0);stroke-width:0.25;fill:none" />
  <path d="M41,44 L40,41" style="stroke:rgb(0,0,0);stroke-width:0.25;fill:none" />
  <path d="M40,21 L40,15" style="stroke:rgb(0,0,0);stroke-width:0.25;fill:none" />
  <path d="M40,15 A4,4 0 0,1 44,11 " style="stroke:rgb(0,0,0);stroke-width:0.25;fill:none" />
  <path d="M44,11 L76,11" style="stroke:rgb(0,0,0);stroke-width:0.25;fill:none" />
  <path d="M76,11 A4,4 0 0,1 80,15 " style="stroke:rgb(0,0,0);stroke-width:0.25;fill:none" />
  <path d="M80,15 L80,47" style="stroke:rgb(0,0,0);stroke-width:0.25;fill:none" />
  <path d="M80,47 A4,4 0 0,1 76,51 " style="stroke:rgb(0,0,0);stroke-width:0.25;fill:none" />
  <path d="M76,51 L44,51" style="stroke:rgb(0,0,0);stroke-width:0.25;fill:none" />
  <path d="M40,47 L40,41" style="stroke:rgb(0,0,0);stroke-width:0.25;fill:none" />
  <path d="M44,51 A4,4 0 0,1 40,47 " style="stroke:rgb(0,0,0);stroke-width:0.25;fill:none" />
  <path d="M60.647,14.6704 L59.353,19.5" style="stroke:rgb(0,0,0);stroke-width:0.25;fill:none" />
  <path d="M100,33.5 L101.294,28.6704" style="stroke:rgb(0,0,0);stroke-width:0.25;fill:none" />
  <path d="M101.294,28.6704 L102.624,28.6704" style="stroke:rgb(0,0,0);stroke-width:0.25;fill:none" />
  <path d="M102.624,28.6704 A1.11111,1.11111 0 0,1 103.697,30.0691 " style="stroke:rgb(0,0,0);stroke-width:0.25;fill:none" />
  <path d="M103.697,30.0691 L103.574,30.5299" style="stroke:rgb(0,0,0);stroke-width:0.25;fill:none" />
  <path d="M103.574,30.53 A1.11111,1.11111 0 0,1 102.5,31.3535 " style="stroke:rgb(0,0,0);stroke-width:0.25;fill:none" />
  <path d="M102.5,31.3535 L100.575,31.3535" style="stroke:rgb(0,0,0);stroke-width:0.25;fill:none" />
  <path d="M102.242,31.3535 L102.778,33.5" style="stroke:rgb(0,0,0);stroke-width:0.25;fill:none" />
  <path d="M104.66,31.0852 L106.882,31.0852" style="stroke:rgb(0,0,0);stroke-width:0.25;fill:none" />
  <path d="M104.228,32.6951 L106.451,32.6951" style="stroke:rgb(0,0,0);stroke-width:0.25;fill:none" />
  <path d="M110.676,28.6704 L108.454,28.6704" style="stroke:rgb(0,0,0);stroke-width:0.25;fill:none" />
  <path d="M108.454,28.6704 L107.879,30.8169" style="stroke:rgb(0,0,0);stroke-width:0.25;fill:none" />
  <path d="M107.879,30.8169 L109.196,30.8169" style="stroke:rgb(0,0,0);stroke-width:0.25;fill:none" />
  <path d="M109.196,30.8169 A0.694444,0.694444 0 0,1 109.867,31.6911 " style="stroke:rgb(0,0,0);stroke-width:0.25;fill:none" />
  <path d="M109.867,31.6911 L109.616,32.6258" style="stroke:rgb(0,0,0);stroke-width:0.25;fill:none" />
  <path d="M109.616,32.6258 A1.17944,1.17944 0 0,1 108.477,33.5 " style="stroke:rgb(0,0,0);stroke-width:0.25;fill:none" />
  <path d="M108.477,33.5 L107.16,33.5" style="stroke:rgb(0,0,0);stroke-width:0.25;fill:none" />
  <path d="M110.954,33.5 L110.968,33.4463" style="stroke:rgb(0,0,0);stroke-width:0.25;fill:none" />
  <path d="M114.207,28.6704 A4.16139,4.16139 0 0,0 111.801,31.4291 " style="stroke:rgb(0,0,0);stroke-width:0.25;fill:none" />
  <path d="M111.801,31.4291 L111.48,32.6258" style="stroke:rgb(0,0,0);stroke-width:0.25;fill:none" />
  <path d="M111.48,32.6258 A0.694444,0.694444 0 0,0 112.151,33.5 " style="stroke:rgb(0,0,0);stroke-width:0.25;fill:none" />
  <path d="M112.151,33.5 L112.563,33.5" style="stroke:rgb(0,0,0);stroke-width:0.25;fill:none" />
  <path d="M112.563,33.5 A1.17944,1.17944 0 0,0 113.703,32.6258 " style="stroke:rgb(0,0,0);stroke-width:0.25;fill:none" />
  <path d="M113.703,32.6258 L113.953,31.6911" style="stroke:rgb(0,0,0);stroke-width:0.25;fill:none" />
  <path d="M113.953,31.6911 A0.694444,0.694444 0 0,0 113.282,30.8169 " style="stroke:rgb(0,0,0);stroke-width:0.25;fill:none" />
  <path d="M113.282,30.8169 L112.017,30.8169" style="stroke:rgb(0,0,0);stroke-width:0.25;fill:none" />
  <path d="M115.779,28.6704 L114.485,33.5" style="stroke:rgb(0,0,0);stroke-width:0.25;fill:none" />
  <path d="M114.916,31.8901 L117.57,30.2802" style="stroke:rgb(0,0,0);stroke-width:0.25;fill:none" />
  <path d="M116.707,33.5 L115.801,31.3535" style="stroke:rgb(0,0,0);stroke-width:0.25;fill:none" />
  <path d="M117.847,33.5 L119.514,33.5" style="stroke:rgb(0,0,0);stroke-width:0.25;fill:none" />
  <path d="M120.625,33.5 L122.292,33.5" style="stroke:rgb(0,0,0);stroke-width:0.25;fill:none" />
  <path d="M119.514,33.5 L119.506,33.3429" style="stroke:rgb(0,0,0);stroke-width:0.25;fill:none" />
  <path d="M119.506,33.3429 L119.484,33.2013" style="stroke:rgb(0,0,0);stroke-width:0.25;fill:none" />
  <path d="M119.484,33.2013 L119.449,33.0745" style="stroke:rgb(0,0,0);stroke-width:0.25;fill:none" />
  <path d="M119.449,33.0745 L119.403,32.9616" style="stroke:rgb(0,0,0);stroke-width:0.25;fill:none" />
  <path d="M119.403,32.9616 L119.349,32.8619" style="stroke:rgb(0,0,0);stroke-width:0.25;fill:none" />
  <path d="M119.349,32.8619 L119.288,32.7744" style="stroke:rgb(0,0,0);stroke-width:0.25;fill:none" />
  <path d="M119.288,32.7744 L119.221,32.6985" style="stroke:rgb(0,0,0);stroke-width:0.25;fill:none" />
  <path d="M119.221,32.6985 L119.152,32.6332" style="stroke:rgb(0,0,0);stroke-width:0.25;fill:none" />
  <path d="M119.152,32.6332 L119.081,32.5779" style="stroke:rgb(0,0,0);stroke-width:0.25;fill:none" />
  <path d="M119.081,32.5779 L119.011,32.5316" style="stroke:rgb(0,0,0);stroke-width:0.25;fill:none" />
  <path d="M119.011,32.5316 L118.943,32.4934" style="stroke:rgb(0,0,0);stroke-width:0.25;fill:none" />
  <path d="M118.943,32.4934 L118.878,32.4617" style="stroke:rgb(0,0,0);stroke-width:0.25;fill:none" />
  <path d="M118.878,32.4617 L118.815,32.4345" style="stroke:rgb(0,0,0);stroke-width:0.25;fill:none" />
  <path d="M118.815,32.4345 L118.754,32.4101" style="stroke:rgb(0,0,0);stroke-width:0.25;fill:none" />
  <path d="M118.754,32.4101 L118.694,32.3864" style="stroke:rgb(0,0,0);stroke-width:0.25;fill:none" />
  <path d="M118.694,32.3864 L118.636,32.3616" style="stroke:rgb(0,0,0);stroke-width:0.25;fill:none" />
  <path d="M118.636,32.3616 L118.58,32.3338" style="stroke:rgb(0,0,0);stroke-width:0.25;fill:none" />
  <path d="M118.58,32.3338 L118.524,32.3011" style="stroke:rgb(0,0,0);stroke-width:0.25;fill:none" />
  <path d="M118.524,32.3011 L118.468,32.2617" style="stroke:rgb(0,0,0);stroke-width:0.25;fill:none" />
  <path d="M118.468,32.2617 L118.413,32.2136" style="stroke:rgb(0,0,0);stroke-width:0.25;fill:none" />
  <path d="M118.413,32.2136 L118.358,32.1551" style="stroke:rgb(0,0,0);stroke-width:0.25;fill:none" />
  <path d="M118.358,32.1551 L118.304,32.0861" style="stroke:rgb(0,0,0);stroke-width:0.25;fill:none" />
  <path d="M118.304,32.0861 L118.252,32.0072" style="stroke:rgb(0,0,0);stroke-width:0.25;fill:none" />
  <path d="M118.252,32.0072 L118.203,31.9189" style="stroke:rgb(0,0,0);stroke-width:0.25;fill:none" />
  <path d="M118.203,31.9189 L118.158,31.8218" style="stroke:rgb(0,0,0);stroke-width:0.25;fill:none" />
  <path d="M118.158,31.8218 L118.118,31.7164" style="stroke:rgb(0,0,0);stroke-width:0.25;fill:none" />
  <path d="M118.118,31.7164 L118.085,31.6033" style="stroke:rgb(0,0,0);stroke-width:0.25;fill:none" />
  <path d="M118.085,31.6033 L118.059,31.4828" style="stroke:rgb(0,0,0);stroke-width:0.25;fill:none" />
  <path d="M118.059,31.4828 L118.041,31.3558" style="stroke:rgb(0,0,0);stroke-width:0.25;fill:none" />
  <path d="M118.041,31.3558 L118.033,31.2225" style="stroke:rgb(0,0,0);stroke-width:0.25;fill:none" />
  <path d="M118.033,31.2225 L118.035,31.0837" style="stroke:rgb(0,0,0);stroke-width:0.25;fill:none" />
  <path d="M118.035,31.0837 L118.049,30.9407" style="stroke:rgb(0,0,0);stroke-width:0.25;fill:none" />
  <path d="M118.049,30.9407 L118.073,30.795" style="stroke:rgb(0,0,0);stroke-width:0.25;fill:none" />
  <path d="M118.073,30.795 L118.108,30.6483" style="stroke:rgb(0,0,0);stroke-width:0.25;fill:none" />
  <path d="M118.108,30.6483 L118.154,30.5021" style="stroke:rgb(0,0,0);stroke-width:0.25;fill:none" />
  <path d="M118.154,30.5021 L118.212,30.3582" style="stroke:rgb(0,0,0);stroke-width:0.25;fill:none" />
  <path d="M118.212,30.3582 L118.279,30.2181" style="stroke:rgb(0,0,0);stroke-width:0.25;fill:none" />
  <path d="M118.279,30.2181 L118.358,30.0834" style="stroke:rgb(0,0,0);stroke-width:0.25;fill:none" />
  <path d="M118.358,30.0834 L118.448,29.9559" style="stroke:rgb(0,0,0);stroke-width:0.25;fill:none" />
  <path d="M118.448,29.9559 L118.549,29.8371" style="stroke:rgb(0,0,0);stroke-width:0.25;fill:none" />
  <path d="M118.549,29.8371 L118.66,29.7284" style="stroke:rgb(0,0,0);stroke-width:0.25;fill:none" />
  <path d="M118.66,29.7284 L118.782,29.6307" style="stroke:rgb(0,0,0);stroke-width:0.25;fill:none" />
  <path d="M118.782,29.6307 L118.913,29.5439" style="stroke:rgb(0,0,0);stroke-width:0.25;fill:none" />
  <path d="M118.913,29.5439 L119.052,29.4681" style="stroke:rgb(0,0,0);stroke-width:0.25;fill:none" />
  <path d="M119.052,29.4681 L119.198,29.4031" style="stroke:rgb(0,0,0);stroke-width:0.25;fill:none" />
  <path d="M119.198,29.4031 L119.35,29.349" style="stroke:rgb(0,0,0);stroke-width:0.25;fill:none" />
  <path d="M119.35,29.349 L119.506,29.3058" style="stroke:rgb(0,0,0);stroke-width:0.25;fill:none" />
  <path d="M119.506,29.3058 L119.667,29.2736" style="stroke:rgb(0,0,0);stroke-width:0.25;fill:none" />
  <path d="M119.667,29.2736 L119.83,29.2523" style="stroke:rgb(0,0,0);stroke-width:0.25;fill:none" />
  <path d="M119.83,29.2523 L119.995,29.2419" style="stroke:rgb(0,0,0);stroke-width:0.25;fill:none" />
  <path d="M119.995,29.2419 L120.16,29.2424" style="stroke:rgb(0,0,0);stroke-width:0.25;fill:none" />
  <path d="M120.16,29.2424 L120.324,29.2538" style="stroke:rgb(0,0,0);stroke-width:0.25;fill:none" />
  <path d="M120.324,29.2538 L120.487,29.2761" style="stroke:rgb(0,0,0);stroke-width:0.25;fill:none" />
  <path d="M120.487,29.2761 L120.647,29.3093" style="stroke:rgb(0,0,0);stroke-width:0.25;fill:none" />
  <path d="M120.647,29.3093 L120.803,29.3534" style="stroke:rgb(0,0,0);stroke-width:0.25;fill:none" />
  <path d="M120.803,29.3534 L120.955,29.4085" style="stroke:rgb(0,0,0);stroke-width:0.25;fill:none" />
  <path d="M120.955,29.4085 L121.1,29.4745" style="stroke:rgb(0,0,0);stroke-width:0.25;fill:none" />
  <path d="M121.1,29.4745 L121.238,29.5514" style="stroke:rgb(0,0,0);stroke-width:0.25;fill:none" />
  <path d="M121.238,29.5514 L121.369,29.6392" style="stroke:rgb(0,0,0);stroke-width:0.25;fill:none" />
  <path d="M121.369,29.6392 L121.489,29.7378" style="stroke:rgb(0,0,0);stroke-width:0.25;fill:none" />
  <path d="M121.489,29.7378 L121.6,29.8474" style="stroke:rgb(0,0,0);stroke-width:0.25;fill:none" />
  <path d="M121.6,29.8474 L121.7,29.9672" style="stroke:rgb(0,0,0);stroke-width:0.25;fill:none" />
  <path d="M121.7,29.9672 L121.788,30.0954" style="stroke:rgb(0,0,0);stroke-width:0.25;fill:none" />
  <path d="M121.788,30.0954 L121.866,30.2307" style="stroke:rgb(0,0,0);stroke-width:0.25;fill:none" />
  <path d="M121.866,30.2307 L121.933,30.3712" style="stroke:rgb(0,0,0);stroke-width:0.25;fill:none" />
  <path d="M121.933,30.3712 L121.989,30.5153" style="stroke:rgb(0,0,0);stroke-width:0.25;fill:none" />
  <path d="M121.989,30.5153 L122.034,30.6616" style="stroke:rgb(0,0,0);stroke-width:0.25;fill:none" />
  <path d="M122.034,30.6616 L122.069,30.8083" style="stroke:rgb(0,0,0);stroke-width:0.25;fill:none" />
  <path d="M122.069,30.8083 L122.092,30.9538" style="stroke:rgb(0,0,0);stroke-width:0.25;fill:none" />
  <path d="M122.092,30.9538 L122.104,31.0966" style="stroke:rgb(0,0,0);stroke-width:0.25;fill:none" />
  <path d="M122.104,31.0966 L122.106,31.2349" style="stroke:rgb(0,0,0);stroke-width:0.25;fill:none" />
  <path d="M122.106,31.2349 L122.097,31.3676" style="stroke:rgb(0,0,0);stroke-width:0.25;fill:none" />
  <path d="M122.097,31.3676 L122.079,31.4941" style="stroke:rgb(0,0,0);stroke-width:0.25;fill:none" />
  <path d="M122.079,31.4941 L122.052,31.6138" style="stroke:rgb(0,0,0);stroke-width:0.25;fill:none" />
  <path d="M122.052,31.6138 L122.018,31.7263" style="stroke:rgb(0,0,0);stroke-width:0.25;fill:none" />
  <path d="M122.018,31.7263 L121.977,31.8311" style="stroke:rgb(0,0,0);stroke-width:0.25;fill:none" />
  <path d="M121.977,31.8311 L121.932,31.9274" style="stroke:rgb(0,0,0);stroke-width:0.25;fill:none" />
  <path d="M121.932,31.9274 L121.883,32.0148" style="stroke:rgb(0,0,0);stroke-width:0.25;fill:none" />
  <path d="M121.883,32.0148 L121.83,32.0928" style="stroke:rgb(0,0,0);stroke-width:0.25;fill:none" />
  <path d="M121.83,32.0928 L121.776,32.1608" style="stroke:rgb(0,0,0);stroke-width:0.25;fill:none" />
  <path d="M121.776,32.1608 L121.721,32.2183" style="stroke:rgb(0,0,0);stroke-width:0.25;fill:none" />
  <path d="M121.721,32.2183 L121.666,32.2655" style="stroke:rgb(0,0,0);stroke-width:0.25;fill:none" />
  <path d="M121.666,32.2655 L121.611,32.3038" style="stroke:rgb(0,0,0);stroke-width:0.25;fill:none" />
  <path d="M121.611,32.3038 L121.556,32.3349" style="stroke:rgb(0,0,0);stroke-width:0.25;fill:none" />
  <path d="M121.556,32.3349 L121.501,32.3604" style="stroke:rgb(0,0,0);stroke-width:0.25;fill:none" />
  <path d="M121.501,32.3604 L121.446,32.3819" style="stroke:rgb(0,0,0);stroke-width:0.25;fill:none" />
  <path d="M121.446,32.3819 L121.391,32.4011" style="stroke:rgb(0,0,0);stroke-width:0.25;fill:none" />
  <path d="M121.391,32.4011 L121.336,32.4195" style="stroke:rgb(0,0,0);stroke-width:0.25;fill:none" />
  <path d="M121.336,32.4195 L121.281,32.4388" style="stroke:rgb(0,0,0);stroke-width:0.25;fill:none" />
  <path d="M121.281,32.4388 L121.226,32.4606" style="stroke:rgb(0,0,0);stroke-width:0.25;fill:none" />
  <path d="M121.226,32.4606 L121.171,32.4866" style="stroke:rgb(0,0,0);stroke-width:0.25;fill:none" />
  <path d="M121.171,32.4866 L121.116,32.5177" style="stroke:rgb(0,0,0);stroke-width:0.25;fill:none" />
  <path d="M121.116,32.5177 L121.062,32.5541" style="stroke:rgb(0,0,0);stroke-width:0.25;fill:none" />
  <path d="M121.062,32.5541 L121.008,32.5952" style="stroke:rgb(0,0,0);stroke-width:0.25;fill:none" />
  <path d="M121.008,32.5952 L120.957,32.641" style="stroke:rgb(0,0,0);stroke-width:0.25;fill:none" />
  <path d="M120.957,32.641 L120.908,32.6911" style="stroke:rgb(0,0,0);stroke-width:0.25;fill:none" />
  <path d="M120.908,32.6911 L120.862,32.7453" style="stroke:rgb(0,0,0);stroke-width:0.25;fill:none" />
  <path d="M120.862,32.7453 L120.819,32.8032" style="stroke:rgb(0,0,0);stroke-width:0.25;fill:none" />
  <path d="M120.819,32.8032 L120.78,32.8647" style="stroke:rgb(0,0,0);stroke-width:0.25;fill:none" />
  <path d="M120.78,32.8647 L120.745,32.9293" style="stroke:rgb(0,0,0);stroke-width:0.25;fill:none" />
  <path d="M120.745,32.9293 L120.715,32.997" style="stroke:rgb(0,0,0);stroke-width:0.25;fill:none" />
  <path d="M120.715,32.997 L120.691,33.0671" style="stroke:rgb(0,0,0);stroke-width:0.25;fill:none" />
  <path d="M120.691,33.0671 L120.671,33.1377" style="stroke:rgb(0,0,0);stroke-width:0.25;fill:none" />
  <path d="M120.671,33.1377 L120.656,33.2072" style="stroke:rgb(0,0,0);stroke-width:0.25;fill:none" />
  <path d="M120.656,33.2072 L120.645,33.2735" style="stroke:rgb(0,0,0);stroke-width:0.25;fill:none" />
  <path d="M120.645,33.2735 L120.636,33.3348" style="stroke:rgb(0,0,0);stroke-width:0.25;fill:none" />
  <path d="M120.636,33.3348 L120.631,33.3892" style="stroke:rgb(0,0,0);stroke-width:0.25;fill:none" />
  <path d="M120.631,33.3892 L120.628,33.4348" style="stroke:rgb(0,0,0);stroke-width:0.25;fill:none" />
  <path d="M120.628,33.4348 L120.626,33.4698" style="stroke:rgb(0,0,0);stroke-width:0.25;fill:none" />
  <path d="M120.626,33.4698 L120.625,33.4921" style="stroke:rgb(0,0,0);stroke-width:0.25;fill:none" />
  <path d="M120.625,33.4921 L120.625,33.5" style="stroke:rgb(0,0,0);stroke-width:0.25;fill:none" />
  <path d="M1.29889,28.6525 L0.379556,32.0834" style="stroke:rgb(0,0,0);stroke-width:0.25;fill:none" />
  <path d="M0.379582,32.0835 A1.11111,1.11111 0 0,0 1.45283,33.4822 " style="stroke:rgb(0,0,0);stroke-width:0.25;fill:none" />
  <path d="M1.45284,33.4822 A1.43306,1.43306 0 0,0 3.05843,32.4527 " style="stroke:rgb(0,0,0);stroke-width:0.25;fill:none" />
  <path d="M3.05839,32.4527 L4.07667,28.6525" style="stroke:rgb(0,0,0);stroke-width:0.25;fill:none" />
  <path d="M5.0015,31.0852 L7.22372,31.0852" style="stroke:rgb(0,0,0);stroke-width:0.25;fill:none" />
  <path d="M4.57011,32.6951 L6.79239,32.6951" style="stroke:rgb(0,0,0);stroke-width:0.25;fill:none" />
  <path d="M8.79561,28.6704 L10.1128,28.6704" style="stroke:rgb(0,0,0);stroke-width:0.25;fill:none" />
  <path d="M10.1128,28.6703 A0.694444,0.694444 0 0,1 10.7836,29.5445 " style="stroke:rgb(0,0,0);stroke-width:0.25;fill:none" />
  <path d="M10.7836,29.5446 L10.6769,29.9427" style="stroke:rgb(0,0,0);stroke-width:0.25;fill:none" />
  <path d="M10.6769,29.9427 A1.17944,1.17944 0 0,1 9.53767,30.8169 " style="stroke:rgb(0,0,0);stroke-width:0.25;fill:none" />
  <path d="M9.53767,30.8169 L8.776,30.8169" style="stroke:rgb(0,0,0);stroke-width:0.25;fill:none" />
  <path d="M9.53767,30.8169 A0.694444,0.694444 0 0,1 10.2084,31.6911 " style="stroke:rgb(0,0,0);stroke-width:0.25;fill:none" />
  <path d="M10.2084,31.6911 L9.95794,32.6258" style="stroke:rgb(0,0,0);stroke-width:0.25;fill:none" />
  <path d="M9.95798,32.6258 A1.17944,1.17944 0 0,1 8.81872,33.5 " style="stroke:rgb(0,0,0);stroke-width:0.25;fill:none" />
  <path d="M8.81872,33.5 L7.5015,33.5" style="stroke:rgb(0,0,0);stroke-width:0.25;fill:none" />
  <path d="M11.5568,32.1585 A2.02917,2.02917 0 0,0 11.7555,33.2317 " style="stroke:rgb(0,0,0);stroke-width:0.25;fill:none" />
  <path d="M11.7555,33.2317 A0.509667,0.509667 0 0,0 12.1926,33.5 " style="stroke:rgb(0,0,0);stroke-width:0.25;fill:none" />
  <path d="M12.1926,33.5 A0.947889,0.947889 0 0,0 12.7735,33.2317 " style="stroke:rgb(0,0,0);stroke-width:0.25;fill:none" />
  <path d="M12.7735,33.2317 A3.56561,3.56561 0 0,0 13.5474,32.1584 " style="stroke:rgb(0,0,0);stroke-width:0.25;fill:none" />
  <path d="M13.5474,32.1584 L13.7326,31.7461" style="stroke:rgb(0,0,0);stroke-width:0.25;fill:none" />
  <path d="M13.7326,31.7461 L13.8611,31.3914" style="stroke:rgb(0,0,0);stroke-width:0.25;fill:none" />
  <path d="M13.8611,31.3914 L13.9742,30.9927" style="stroke:rgb(0,0,0);stroke-width:0.25;fill:none" />
  <path d="M13.9742,30.9927 L14.0823,30.4216" style="stroke:rgb(0,0,0);stroke-width:0.25;fill:none" />
  <path d="M14.0823,30.4216 L14.1226,30.0119" style="stroke:rgb(0,0,0);stroke-width:0.25;fill:none" />
  <path d="M14.1226,30.0116 A2.02894,2.02894 0 0,0 13.9239,28.9386 " style="stroke:rgb(0,0,0);stroke-width:0.25;fill:none" />
  <path d="M13.9238,28.9387 A0.509667,0.509667 0 0,0 13.4867,28.6704 " style="stroke:rgb(0,0,0);stroke-width:0.25;fill:none" />
  <path d="M13.4867,28.6704 A0.947889,0.947889 0 0,0 12.9058,28.9387 " style="stroke:rgb(0,0,0);stroke-width:0.25;fill:none" />
  <path d="M12.9058,28.9387 A3.56561,3.56561 0 0,0 12.1319,30.012 " style="stroke:rgb(0,0,0);stroke-width:0.25;fill:none" />
  <path d="M12.1319,30.0119 L11.9468,30.4243" style="stroke:rgb(0,0,0);stroke-width:0.25;fill:none" />
  <path d="M11.9468,30.4243 L11.8183,30.7789" style="stroke:rgb(0,0,0);stroke-width:0.25;fill:none" />
  <path d="M11.8183,30.7789 L11.7052,31.1777" style="stroke:rgb(0,0,0);stroke-width:0.25;fill:none" />
  <path d="M11.7052,31.1777 L11.5971,31.7487" style="stroke:rgb(0,0,0);stroke-width:0.25;fill:none" />
  <path d="M11.5971,31.7487 L11.5568,32.1584" style="stroke:rgb(0,0,0);stroke-width:0.25;fill:none" />
  <path d="M15.7026,28.6704 L16.0751,33.5" style="stroke:rgb(0,0,0);stroke-width:0.25;fill:none" />
  <path d="M16.0751,33.5 L19.0359,28.6704" style="stroke:rgb(0,0,0);stroke-width:0.25;fill:none" />
</svg>
