<?xml version="1.0" standalone="yes"?>

<svg width="123mm" height="62mm" viewBox="0 0 123 62" version="1.1"
xmlns="http://www.w3.org/2000/svg" style="stroke-linecap:round">
  <path d="M25,33 L35,33" style="stroke:rgb(0,0,0);stroke-width:0.25;fill:none" />
  <path d="M20,29 L40,29" style="stroke:rgb(0,0,0);stroke-width:0.25;fill:none" />
  <path d="M30,29 L30,21" style="stroke:rgb(0,0,0);stroke-width:0.25;fill:none" />
  <path d="M30,33 L30,41" style="stroke:rgb(0,0,0);stroke-width:0.25;fill:none" />
  <path d="M94,21 L94,41" style="stroke:rgb(0,0,0);stroke-width:0.25;fill:none" />
  <path d="M94,41 L86,41" style="stroke:rgb(0,0,0);stroke-width:0.25;fill:none" />
  <path d="M86,21 L94,21" style="stroke:rgb(0,0,0);stroke-width:0.25;fill:none" />
  <path d="M86,21 L86,41" style="stroke:rgb(0,0,0);stroke-width:0.25;fill:none" />
  <path d="M90,21 L90,11" style="stroke:rgb(0,0,0);stroke-width:0.25;fill:none" />
  <path d="M90,41 L90,51" style="stroke:rgb(0,0,0);stroke-width:0.25;fill:none" />
  <path d="M30,41 L30,61" style="stroke:rgb(0,0,0);stroke-width:0.25;fill:none" />
  <path d="M30,61 L90,61" style="stroke:rgb(0,0,0);stroke-width:0.25;fill:none" />
  <path d="M90,61 L90,51" style="stroke:rgb(0,0,0);stroke-width:0.25;fill:none" />
  <path d="M90,11 L90,1" style="stroke:rgb(0,0,0);stroke-width:0.25;fill:none" />
  <path d="M90,1 L30,1" style="stroke:rgb(0,0,0);stroke-width:0.25;fill:none" />
  <path d="M30,1 L30,21" style="stroke:rgb(0,0,0);stroke-width:0.25;fill:none" />
  <path d="M40,41 L39,44" style="stroke:rgb(0,0,0);stroke-width:0.25;fill:none" />
  <path d="M39,44 L41,44" style="stroke:rgb(0,0,0);stroke-width:0.25;fill:none" />
  <path d="M41,44 L40,41" style="stroke:rgb(0,0,0);stroke-width:0.25;fill:none" />
  <path d="M40,21 L40,15" style="stroke:rgb(0,0,0);stroke-width:0.25;fill:none" />
  <path d="M40,15 A4,4 0 0,1 44,11 " style="stroke:rgb(0,0,0);stroke-width:0.25;fill:none" />
  <path d="M44,11 L76,11" style="stroke:rgb(0,0,0);stroke-width:0.25;fill:none" />
  <path d="M76,11 A4,4 0 0,1 80,15 " style="stroke:rgb(0,0,0);stroke-width:0.25;fill:none" />
  <path d="M80,15 L80,47" style="stroke:rgb(0,0,0);stroke-width:0.25;fill:none" />
  <path d="M80,47 A4,4 0 0,1 76,51 " style="stroke:rgb(0,0,0);stroke-width:0.25;fill:none" />
  <path d="M76,51 L44,51" style="stroke:rgb(0,0,0);stroke-width:0.25;fill:none" />
  <path d="M40,47 L40,41" style="stroke:rgb(0,0,0);stroke-width:0.25;fill:none" />
  <path d="M44,51 A4,4 0 0,1 40,47 " style="stroke:rgb(0,0,0);stroke-width:0.25;fill:none" />
  <path d="M60.647,14.6704 L59.353,19.5" style="stroke:rgb(0,0,0);stroke-width:0.25;fill:none" />
  <path d="M100,33.5 L101.294,28.6704" style="stroke:rgb(0,0,0);stroke-width:0.25;fill:none" />
  <path d="M101.294,28.6704 L102.624,28.6704" style="stroke:rgb(0,0,0);stroke-width:0.25;fill:none" />
  <path d="M102.624,28.6704 A1.11111,1.11111 0 0,1 103.697,30.0691 " style="stroke:rgb(0,0,0);stroke-width:0.25;fill:none" />
  <path d="M103.697,30.0691 L103.574,30.5299" style="stroke:rgb(0,0,0);stroke-width:0.25;fill:none" />
  <path d="M103.574,30.53 A1.11111,1.11111 0 0,1 102.5,31.3535 " style="stroke:rgb(0,0,0);stroke-width:0.25;fill:none" />
  <path d="M102.5,31.3535 L100.575,31.3535" style="stroke:rgb(0,0,0);stroke-width:0.25;fill:none" />
  <path d="M102.242,31.3535 L102.778,33.5" style="stroke:rgb(0,0,0);stroke-width:0.25;fill:none" />
  <path d="M104.66,31.0852 L106.882,31.0852" style="stroke:rgb(0,0,0);stroke-width:0.25;fill:none" />
  <path d="M104.228,32.6951 L106.451,32.6951" style="stroke:rgb(0,0,0);stroke-width:0.25;fill:none" />
  <path d="M110.493,33.5 L108.271,33.5" style="stroke:rgb(0,0,0);stroke-width:0.25;fill:none" />
  <path d="M108.271,33.5 L111.233,30.3034" style="stroke:rgb(0,0,0);stroke-width:0.25;fill:none" />
  <path d="M111.233,30.3035 A0.972222,0.972222 0 0,0 110.52,28.6704 " style="stroke:rgb(0,0,0);stroke-width:0.25;fill:none" />
  <path d="M110.311,28.6704 L110.52,28.6704" style="stroke:rgb(0,0,0);stroke-width:0.25;fill:none" />
  <path d="M110.311,28.6704 A0.972222,0.972222 0 0,0 109.372,29.391 " style="stroke:rgb(0,0,0);stroke-width:0.25;fill:none" />
  <path d="M115.104,33.5 L112.881,33.5" style="stroke:rgb(0,0,0);stroke-width:0.25;fill:none" />
  <path d="M112.881,33.5 L115.844,30.3034" style="stroke:rgb(0,0,0);stroke-width:0.25;fill:none" />
  <path d="M115.844,30.3035 A0.972222,0.972222 0 0,0 115.131,28.6704 " style="stroke:rgb(0,0,0);stroke-width:0.25;fill:none" />
  <path d="M114.921,28.6704 L115.131,28.6704" style="stroke:rgb(0,0,0);stroke-width:0.25;fill:none" />
  <path d="M114.921,28.6704 A0.972222,0.972222 0 0,0 113.982,29.391 " style="stroke:rgb(0,0,0);stroke-width:0.25;fill:none" />
  <path d="M116.381,33.5 L118.047,33.5" style="stroke:rgb(0,0,0);stroke-width:0.25;fill:none" />
  <path d="M119.158,33.5 L120.825,33.5" style="stroke:rgb(0,0,0);stroke-width:0.25;fill:none" />
  <path d="M118.047,33.5 L118.039,33.3429" style="stroke:rgb(0,0,0);stroke-width:0.25;fill:none" />
  <path d="M118.039,33.3429 L118.017,33.2013" style="stroke:rgb(0,0,0);stroke-width:0.25;fill:none" />
  <path d="M118.017,33.2013 L117.982,33.0745" style="stroke:rgb(0,0,0);stroke-width:0.25;fill:none" />
  <path d="M117.982,33.0745 L117.937,32.9616" style="stroke:rgb(0,0,0);stroke-width:0.25;fill:none" />
  <path d="M117.937,32.9616 L117.882,32.8619" style="stroke:rgb(0,0,0);stroke-width:0.25;fill:none" />
  <path d="M117.882,32.8619 L117.821,32.7744" style="stroke:rgb(0,0,0);stroke-width:0.25;fill:none" />
  <path d="M117.821,32.7744 L117.755,32.6985" style="stroke:rgb(0,0,0);stroke-width:0.25;fill:none" />
  <path d="M117.755,32.6985 L117.685,32.6332" style="stroke:rgb(0,0,0);stroke-width:0.25;fill:none" />
  <path d="M117.685,32.6332 L117.614,32.5779" style="stroke:rgb(0,0,0);stroke-width:0.25;fill:none" />
  <path d="M117.614,32.5779 L117.544,32.5316" style="stroke:rgb(0,0,0);stroke-width:0.25;fill:none" />
  <path d="M117.544,32.5316 L117.477,32.4934" style="stroke:rgb(0,0,0);stroke-width:0.25;fill:none" />
  <path d="M117.477,32.4934 L117.411,32.4617" style="stroke:rgb(0,0,0);stroke-width:0.25;fill:none" />
  <path d="M117.411,32.4617 L117.348,32.4345" style="stroke:rgb(0,0,0);stroke-width:0.25;fill:none" />
  <path d="M117.348,32.4345 L117.287,32.4101" style="stroke:rgb(0,0,0);stroke-width:0.25;fill:none" />
  <path d="M117.287,32.4101 L117.228,32.3864" style="stroke:rgb(0,0,0);stroke-width:0.25;fill:none" />
  <path d="M117.228,32.3864 L117.17,32.3616" style="stroke:rgb(0,0,0);stroke-width:0.25;fill:none" />
  <path d="M117.17,32.3616 L117.113,32.3338" style="stroke:rgb(0,0,0);stroke-width:0.25;fill:none" />
  <path d="M117.113,32.3338 L117.057,32.3011" style="stroke:rgb(0,0,0);stroke-width:0.25;fill:none" />
  <path d="M117.057,32.3011 L117.001,32.2617" style="stroke:rgb(0,0,0);stroke-width:0.25;fill:none" />
  <path d="M117.001,32.2617 L116.946,32.2136" style="stroke:rgb(0,0,0);stroke-width:0.25;fill:none" />
  <path d="M116.946,32.2136 L116.891,32.1551" style="stroke:rgb(0,0,0);stroke-width:0.25;fill:none" />
  <path d="M116.891,32.1551 L116.837,32.0861" style="stroke:rgb(0,0,0);stroke-width:0.25;fill:none" />
  <path d="M116.837,32.0861 L116.785,32.0072" style="stroke:rgb(0,0,0);stroke-width:0.25;fill:none" />
  <path d="M116.785,32.0072 L116.736,31.9189" style="stroke:rgb(0,0,0);stroke-width:0.25;fill:none" />
  <path d="M116.736,31.9189 L116.691,31.8218" style="stroke:rgb(0,0,0);stroke-width:0.25;fill:none" />
  <path d="M116.691,31.8218 L116.651,31.7164" style="stroke:rgb(0,0,0);stroke-width:0.25;fill:none" />
  <path d="M116.651,31.7164 L116.618,31.6033" style="stroke:rgb(0,0,0);stroke-width:0.25;fill:none" />
  <path d="M116.618,31.6033 L116.592,31.4828" style="stroke:rgb(0,0,0);stroke-width:0.25;fill:none" />
  <path d="M116.592,31.4828 L116.574,31.3558" style="stroke:rgb(0,0,0);stroke-width:0.25;fill:none" />
  <path d="M116.574,31.3558 L116.566,31.2225" style="stroke:rgb(0,0,0);stroke-width:0.25;fill:none" />
  <path d="M116.566,31.2225 L116.569,31.0837" style="stroke:rgb(0,0,0);stroke-width:0.25;fill:none" />
  <path d="M116.569,31.0837 L116.582,30.9407" style="stroke:rgb(0,0,0);stroke-width:0.25;fill:none" />
  <path d="M116.582,30.9407 L116.606,30.795" style="stroke:rgb(0,0,0);stroke-width:0.25;fill:none" />
  <path d="M116.606,30.795 L116.642,30.6483" style="stroke:rgb(0,0,0);stroke-width:0.25;fill:none" />
  <path d="M116.642,30.6483 L116.688,30.5021" style="stroke:rgb(0,0,0);stroke-width:0.25;fill:none" />
  <path d="M116.688,30.5021 L116.745,30.3582" style="stroke:rgb(0,0,0);stroke-width:0.25;fill:none" />
  <path d="M116.745,30.3582 L116.813,30.2181" style="stroke:rgb(0,0,0);stroke-width:0.25;fill:none" />
  <path d="M116.813,30.2181 L116.892,30.0834" style="stroke:rgb(0,0,0);stroke-width:0.25;fill:none" />
  <path d="M116.892,30.0834 L116.981,29.9559" style="stroke:rgb(0,0,0);stroke-width:0.25;fill:none" />
  <path d="M116.981,29.9559 L117.082,29.8371" style="stroke:rgb(0,0,0);stroke-width:0.25;fill:none" />
  <path d="M117.082,29.8371 L117.194,29.7284" style="stroke:rgb(0,0,0);stroke-width:0.25;fill:none" />
  <path d="M117.194,29.7284 L117.315,29.6307" style="stroke:rgb(0,0,0);stroke-width:0.25;fill:none" />
  <path d="M117.315,29.6307 L117.446,29.5439" style="stroke:rgb(0,0,0);stroke-width:0.25;fill:none" />
  <path d="M117.446,29.5439 L117.585,29.4681" style="stroke:rgb(0,0,0);stroke-width:0.25;fill:none" />
  <path d="M117.585,29.4681 L117.731,29.4031" style="stroke:rgb(0,0,0);stroke-width:0.25;fill:none" />
  <path d="M117.731,29.4031 L117.883,29.349" style="stroke:rgb(0,0,0);stroke-width:0.25;fill:none" />
  <path d="M117.883,29.349 L118.04,29.3058" style="stroke:rgb(0,0,0);stroke-width:0.25;fill:none" />
  <path d="M118.04,29.3058 L118.2,29.2736" style="stroke:rgb(0,0,0);stroke-width:0.25;fill:none" />
  <path d="M118.2,29.2736 L118.363,29.2523" style="stroke:rgb(0,0,0);stroke-width:0.25;fill:none" />
  <path d="M118.363,29.2523 L118.528,29.2419" style="stroke:rgb(0,0,0);stroke-width:0.25;fill:none" />
  <path d="M118.528,29.2419 L118.693,29.2424" style="stroke:rgb(0,0,0);stroke-width:0.25;fill:none" />
  <path d="M118.693,29.2424 L118.858,29.2538" style="stroke:rgb(0,0,0);stroke-width:0.25;fill:none" />
  <path d="M118.858,29.2538 L119.02,29.2761" style="stroke:rgb(0,0,0);stroke-width:0.25;fill:none" />
  <path d="M119.02,29.2761 L119.18,29.3093" style="stroke:rgb(0,0,0);stroke-width:0.25;fill:none" />
  <path d="M119.18,29.3093 L119.337,29.3534" style="stroke:rgb(0,0,0);stroke-width:0.25;fill:none" />
  <path d="M119.337,29.3534 L119.488,29.4085" style="stroke:rgb(0,0,0);stroke-width:0.25;fill:none" />
  <path d="M119.488,29.4085 L119.633,29.4745" style="stroke:rgb(0,0,0);stroke-width:0.25;fill:none" />
  <path d="M119.633,29.4745 L119.772,29.5514" style="stroke:rgb(0,0,0);stroke-width:0.25;fill:none" />
  <path d="M119.772,29.5514 L119.902,29.6392" style="stroke:rgb(0,0,0);stroke-width:0.25;fill:none" />
  <path d="M119.902,29.6392 L120.023,29.7378" style="stroke:rgb(0,0,0);stroke-width:0.25;fill:none" />
  <path d="M120.023,29.7378 L120.133,29.8474" style="stroke:rgb(0,0,0);stroke-width:0.25;fill:none" />
  <path d="M120.133,29.8474 L120.233,29.9672" style="stroke:rgb(0,0,0);stroke-width:0.25;fill:none" />
  <path d="M120.233,29.9672 L120.322,30.0954" style="stroke:rgb(0,0,0);stroke-width:0.25;fill:none" />
  <path d="M120.322,30.0954 L120.4,30.2307" style="stroke:rgb(0,0,0);stroke-width:0.25;fill:none" />
  <path d="M120.4,30.2307 L120.467,30.3712" style="stroke:rgb(0,0,0);stroke-width:0.25;fill:none" />
  <path d="M120.467,30.3712 L120.523,30.5153" style="stroke:rgb(0,0,0);stroke-width:0.25;fill:none" />
  <path d="M120.523,30.5153 L120.568,30.6616" style="stroke:rgb(0,0,0);stroke-width:0.25;fill:none" />
  <path d="M120.568,30.6616 L120.602,30.8083" style="stroke:rgb(0,0,0);stroke-width:0.25;fill:none" />
  <path d="M120.602,30.8083 L120.625,30.9538" style="stroke:rgb(0,0,0);stroke-width:0.25;fill:none" />
  <path d="M120.625,30.9538 L120.638,31.0966" style="stroke:rgb(0,0,0);stroke-width:0.25;fill:none" />
  <path d="M120.638,31.0966 L120.639,31.2349" style="stroke:rgb(0,0,0);stroke-width:0.25;fill:none" />
  <path d="M120.639,31.2349 L120.63,31.3676" style="stroke:rgb(0,0,0);stroke-width:0.25;fill:none" />
  <path d="M120.63,31.3676 L120.612,31.4941" style="stroke:rgb(0,0,0);stroke-width:0.25;fill:none" />
  <path d="M120.612,31.4941 L120.585,31.6138" style="stroke:rgb(0,0,0);stroke-width:0.25;fill:none" />
  <path d="M120.585,31.6138 L120.551,31.7263" style="stroke:rgb(0,0,0);stroke-width:0.25;fill:none" />
  <path d="M120.551,31.7263 L120.511,31.8311" style="stroke:rgb(0,0,0);stroke-width:0.25;fill:none" />
  <path d="M120.511,31.8311 L120.465,31.9274" style="stroke:rgb(0,0,0);stroke-width:0.25;fill:none" />
  <path d="M120.465,31.9274 L120.416,32.0148" style="stroke:rgb(0,0,0);stroke-width:0.25;fill:none" />
  <path d="M120.416,32.0148 L120.364,32.0928" style="stroke:rgb(0,0,0);stroke-width:0.25;fill:none" />
  <path d="M120.364,32.0928 L120.309,32.1608" style="stroke:rgb(0,0,0);stroke-width:0.25;fill:none" />
  <path d="M120.309,32.1608 L120.255,32.2183" style="stroke:rgb(0,0,0);stroke-width:0.25;fill:none" />
  <path d="M120.255,32.2183 L120.2,32.2655" style="stroke:rgb(0,0,0);stroke-width:0.25;fill:none" />
  <path d="M120.2,32.2655 L120.144,32.3038" style="stroke:rgb(0,0,0);stroke-width:0.25;fill:none" />
  <path d="M120.144,32.3038 L120.089,32.3349" style="stroke:rgb(0,0,0);stroke-width:0.25;fill:none" />
  <path d="M120.089,32.3349 L120.034,32.3604" style="stroke:rgb(0,0,0);stroke-width:0.25;fill:none" />
  <path d="M120.034,32.3604 L119.979,32.3819" style="stroke:rgb(0,0,0);stroke-width:0.25;fill:none" />
  <path d="M119.979,32.3819 L119.924,32.4011" style="stroke:rgb(0,0,0);stroke-width:0.25;fill:none" />
  <path d="M119.924,32.4011 L119.869,32.4195" style="stroke:rgb(0,0,0);stroke-width:0.25;fill:none" />
  <path d="M119.869,32.4195 L119.814,32.4388" style="stroke:rgb(0,0,0);stroke-width:0.25;fill:none" />
  <path d="M119.814,32.4388 L119.759,32.4606" style="stroke:rgb(0,0,0);stroke-width:0.25;fill:none" />
  <path d="M119.759,32.4606 L119.704,32.4866" style="stroke:rgb(0,0,0);stroke-width:0.25;fill:none" />
  <path d="M119.704,32.4866 L119.649,32.5177" style="stroke:rgb(0,0,0);stroke-width:0.25;fill:none" />
  <path d="M119.649,32.5177 L119.595,32.5541" style="stroke:rgb(0,0,0);stroke-width:0.25;fill:none" />
  <path d="M119.595,32.5541 L119.542,32.5952" style="stroke:rgb(0,0,0);stroke-width:0.25;fill:none" />
  <path d="M119.542,32.5952 L119.49,32.641" style="stroke:rgb(0,0,0);stroke-width:0.25;fill:none" />
  <path d="M119.49,32.641 L119.441,32.6911" style="stroke:rgb(0,0,0);stroke-width:0.25;fill:none" />
  <path d="M119.441,32.6911 L119.395,32.7453" style="stroke:rgb(0,0,0);stroke-width:0.25;fill:none" />
  <path d="M119.395,32.7453 L119.352,32.8032" style="stroke:rgb(0,0,0);stroke-width:0.25;fill:none" />
  <path d="M119.352,32.8032 L119.313,32.8647" style="stroke:rgb(0,0,0);stroke-width:0.25;fill:none" />
  <path d="M119.313,32.8647 L119.278,32.9293" style="stroke:rgb(0,0,0);stroke-width:0.25;fill:none" />
  <path d="M119.278,32.9293 L119.249,32.997" style="stroke:rgb(0,0,0);stroke-width:0.25;fill:none" />
  <path d="M119.249,32.997 L119.224,33.0671" style="stroke:rgb(0,0,0);stroke-width:0.25;fill:none" />
  <path d="M119.224,33.0671 L119.205,33.1377" style="stroke:rgb(0,0,0);stroke-width:0.25;fill:none" />
  <path d="M119.205,33.1377 L119.189,33.2072" style="stroke:rgb(0,0,0);stroke-width:0.25;fill:none" />
  <path d="M119.189,33.2072 L119.178,33.2735" style="stroke:rgb(0,0,0);stroke-width:0.25;fill:none" />
  <path d="M119.178,33.2735 L119.17,33.3348" style="stroke:rgb(0,0,0);stroke-width:0.25;fill:none" />
  <path d="M119.17,33.3348 L119.164,33.3892" style="stroke:rgb(0,0,0);stroke-width:0.25;fill:none" />
  <path d="M119.164,33.3892 L119.161,33.4348" style="stroke:rgb(0,0,0);stroke-width:0.25;fill:none" />
  <path d="M119.161,33.4348 L119.159,33.4698" style="stroke:rgb(0,0,0);stroke-width:0.25;fill:none" />
  <path d="M119.159,33.4698 L119.159,33.4921" style="stroke:rgb(0,0,0);stroke-width:0.25;fill:none" />
  <path d="M119.159,33.4921 L119.158,33.5" style="stroke:rgb(0,0,0);stroke-width:0.25;fill:none" />
  <path d="M1.29889,28.6525 L0.379556,32.0834" style="stroke:rgb(0,0,0);stroke-width:0.25;fill:none" />
  <path d="M0.379582,32.0835 A1.11111,1.11111 0 0,0 1.45283,33.4822 " style="stroke:rgb(0,0,0);stroke-width:0.25;fill:none" />
  <path d="M1.45284,33.4822 A1.43306,1.43306 0 0,0 3.05843,32.4527 " style="stroke:rgb(0,0,0);stroke-width:0.25;fill:none" />
  <path d="M3.05839,32.4527 L4.07667,28.6525" style="stroke:rgb(0,0,0);stroke-width:0.25;fill:none" />
  <path d="M5.0015,31.0852 L7.22372,31.0852" style="stroke:rgb(0,0,0);stroke-width:0.25;fill:none" />
  <path d="M4.57011,32.6951 L6.79239,32.6951" style="stroke:rgb(0,0,0);stroke-width:0.25;fill:none" />
  <path d="M8.50806,29.7436 L9.90672,28.6704" style="stroke:rgb(0,0,0);stroke-width:0.25;fill:none" />
  <path d="M9.90672,28.6704 L8.61261,33.5" style="stroke:rgb(0,0,0);stroke-width:0.25;fill:none" />
  <path d="M10.6562,32.1585 A2.02917,2.02917 0 0,0 10.855,33.2317 " style="stroke:rgb(0,0,0);stroke-width:0.25;fill:none" />
  <path d="M10.8549,33.2317 A0.509667,0.509667 0 0,0 11.292,33.5 " style="stroke:rgb(0,0,0);stroke-width:0.25;fill:none" />
  <path d="M11.2921,33.5 A0.947889,0.947889 0 0,0 11.873,33.2317 " style="stroke:rgb(0,0,0);stroke-width:0.25;fill:none" />
  <path d="M11.873,33.2317 A3.56561,3.56561 0 0,0 12.6469,32.1584 " style="stroke:rgb(0,0,0);stroke-width:0.25;fill:none" />
  <path d="M12.6469,32.1584 L12.832,31.7461" style="stroke:rgb(0,0,0);stroke-width:0.25;fill:none" />
  <path d="M12.832,31.7461 L12.9605,31.3914" style="stroke:rgb(0,0,0);stroke-width:0.25;fill:none" />
  <path d="M12.9605,31.3914 L13.0736,30.9927" style="stroke:rgb(0,0,0);stroke-width:0.25;fill:none" />
  <path d="M13.0736,30.9927 L13.1817,30.4216" style="stroke:rgb(0,0,0);stroke-width:0.25;fill:none" />
  <path d="M13.1817,30.4216 L13.222,30.0119" style="stroke:rgb(0,0,0);stroke-width:0.25;fill:none" />
  <path d="M13.2221,30.0116 A2.02894,2.02894 0 0,0 13.0233,28.9386 " style="stroke:rgb(0,0,0);stroke-width:0.25;fill:none" />
  <path d="M13.0232,28.9387 A0.509667,0.509667 0 0,0 12.5861,28.6704 " style="stroke:rgb(0,0,0);stroke-width:0.25;fill:none" />
  <path d="M12.5862,28.6704 A0.947889,0.947889 0 0,0 12.0052,28.9387 " style="stroke:rgb(0,0,0);stroke-width:0.25;fill:none" />
  <path d="M12.0052,28.9387 A3.56561,3.56561 0 0,0 11.2313,30.012 " style="stroke:rgb(0,0,0);stroke-width:0.25;fill:none" />
  <path d="M11.2313,30.0119 L11.0462,30.4243" style="stroke:rgb(0,0,0);stroke-width:0.25;fill:none" />
  <path d="M11.0462,30.4243 L10.9177,30.7789" style="stroke:rgb(0,0,0);stroke-width:0.25;fill:none" />
  <path d="M10.9177,30.7789 L10.8046,31.1777" style="stroke:rgb(0,0,0);stroke-width:0.25;fill:none" />
  <path d="M10.8046,31.1777 L10.6965,31.7487" style="stroke:rgb(0,0,0);stroke-width:0.25;fill:none" />
  <path d="M10.6965,31.7487 L10.6562,32.1584" style="stroke:rgb(0,0,0);stroke-width:0.25;fill:none" />
  <path d="M13.9796,32.1585 A2.02917,2.02917 0 0,0 14.1784,33.2317 " style="stroke:rgb(0,0,0);stroke-width:0.25;fill:none" />
  <path d="M14.1783,33.2317 A0.509667,0.509667 0 0,0 14.6154,33.5 " style="stroke:rgb(0,0,0);stroke-width:0.25;fill:none" />
  <path d="M14.6155,33.5 A0.947889,0.947889 0 0,0 15.1964,33.2317 " style="stroke:rgb(0,0,0);stroke-width:0.25;fill:none" />
  <path d="M15.1964,33.2317 A3.56561,3.56561 0 0,0 15.9703,32.1584 " style="stroke:rgb(0,0,0);stroke-width:0.25;fill:none" />
  <path d="M15.9703,32.1584 L16.1554,31.7461" style="stroke:rgb(0,0,0);stroke-width:0.25;fill:none" />
  <path d="M16.1554,31.7461 L16.2839,31.3914" style="stroke:rgb(0,0,0);stroke-width:0.25;fill:none" />
  <path d="M16.2839,31.3914 L16.397,30.9927" style="stroke:rgb(0,0,0);stroke-width:0.25;fill:none" />
  <path d="M16.397,30.9927 L16.5051,30.4216" style="stroke:rgb(0,0,0);stroke-width:0.25;fill:none" />
  <path d="M16.5051,30.4216 L16.5454,30.0119" style="stroke:rgb(0,0,0);stroke-width:0.25;fill:none" />
  <path d="M16.5455,30.0116 A2.02894,2.02894 0 0,0 16.3467,28.9386 " style="stroke:rgb(0,0,0);stroke-width:0.25;fill:none" />
  <path d="M16.3466,28.9387 A0.509667,0.509667 0 0,0 15.9095,28.6704 " style="stroke:rgb(0,0,0);stroke-width:0.25;fill:none" />
  <path d="M15.9096,28.6704 A0.947889,0.947889 0 0,0 15.3286,28.9387 " style="stroke:rgb(0,0,0);stroke-width:0.25;fill:none" />
  <path d="M15.3286,28.9387 A3.56561,3.56561 0 0,0 14.5547,30.012 " style="stroke:rgb(0,0,0);stroke-width:0.25;fill:none" />
  <path d="M14.5547,30.0119 L14.3696,30.4243" style="stroke:rgb(0,0,0);stroke-width:0.25;fill:none" />
  <path d="M14.3696,30.4243 L14.2411,30.7789" style="stroke:rgb(0,0,0);stroke-width:0.25;fill:none" />
  <path d="M14.2411,30.7789 L14.128,31.1777" style="stroke:rgb(0,0,0);stroke-width:0.25;fill:none" />
  <path d="M14.128,31.1777 L14.0199,31.7487" style="stroke:rgb(0,0,0);stroke-width:0.25;fill:none" />
  <path d="M14.0199,31.7487 L13.9796,32.1584" style="stroke:rgb(0,0,0);stroke-width:0.25;fill:none" />
  <path d="M17.694,30.2802 L17.9424,33.5" style="stroke:rgb(0,0,0);stroke-width:0.25;fill:none" />
  <path d="M17.9424,33.5 L19.9162,30.2802" style="stroke:rgb(0,0,0);stroke-width:0.25;fill:none" />
</svg>
