<?xml version="1.0" standalone="yes"?>

<svg width="123mm" height="62mm" viewBox="0 0 123 62" version="1.1"
xmlns="http://www.w3.org/2000/svg" style="stroke-linecap:round">
  <path d="M25,33 L35,33" style="stroke:rgb(0,0,0);stroke-width:0.25;fill:none" />
  <path d="M20,29 L40,29" style="stroke:rgb(0,0,0);stroke-width:0.25;fill:none" />
  <path d="M30,29 L30,21" style="stroke:rgb(0,0,0);stroke-width:0.25;fill:none" />
  <path d="M30,33 L30,41" style="stroke:rgb(0,0,0);stroke-width:0.25;fill:none" />
  <path d="M94,21 L94,41" style="stroke:rgb(0,0,0);stroke-width:0.25;fill:none" />
  <path d="M94,41 L86,41" style="stroke:rgb(0,0,0);stroke-width:0.25;fill:none" />
  <path d="M86,21 L94,21" style="stroke:rgb(0,0,0);stroke-width:0.25;fill:none" />
  <path d="M86,21 L86,41" style="stroke:rgb(0,0,0);stroke-width:0.25;fill:none" />
  <path d="M90,21 L90,11" style="stroke:rgb(0,0,0);stroke-width:0.25;fill:none" />
  <path d="M90,41 L90,51" style="stroke:rgb(0,0,0);stroke-width:0.25;fill:none" />
  <path d="M30,41 L30,61" style="stroke:rgb(0,0,0);stroke-width:0.25;fill:none" />
  <path d="M30,61 L90,61" style="stroke:rgb(0,0,0);stroke-width:0.25;fill:none" />
  <path d="M90,61 L90,51" style="stroke:rgb(0,0,0);stroke-width:0.25;fill:none" />
  <path d="M90,11 L90,1" style="stroke:rgb(0,0,0);stroke-width:0.25;fill:none" />
  <path d="M90,1 L30,1" style="stroke:rgb(0,0,0);stroke-width:0.25;fill:none" />
  <path d="M30,1 L30,21" style="stroke:rgb(0,0,0);stroke-width:0.25;fill:none" />
  <path d="M40,41 L39,44" style="stroke:rgb(0,0,0);stroke-width:0.25;fill:none" />
  <path d="M39,44 L41,44" style="stroke:rgb(0,0,0);stroke-width:0.25;fill:none" />
  <path d="M41,44 L40,41" style="stroke:rgb(0,0,0);stroke-width:0.25;fill:none" />
  <path d="M40,21 L40,15" style="stroke:rgb(0,0,0);stroke-width:0.25;fill:none" />
  <path d="M40,15 A4,4 0 0,1 44,11 " style="stroke:rgb(0,0,0);stroke-width:0.25;fill:none" />
  <path d="M44,11 L76,11" style="stroke:rgb(0,0,0);stroke-width:0.25;fill:none" />
  <path d="M76,11 A4,4 0 0,1 80,15 " style="stroke:rgb(0,0,0);stroke-width:0.25;fill:none" />
  <path d="M80,15 L80,47" style="stroke:rgb(0,0,0);stroke-width:0.25;fill:none" />
  <path d="M80,47 A4,4 0 0,1 76,51 " style="stroke:rgb(0,0,0);stroke-width:0.25;fill:none" />
  <path d="M76,51 L44,51" style="stroke:rgb(0,0,0);stroke-width:0.25;fill:none" />
  <path d="M40,47 L40,41" style="stroke:rgb(0,0,0);stroke-width:0.25;fill:none" />
  <path d="M44,51 A4,4 0 0,1 40,47 " style="stroke:rgb(0,0,0);stroke-width:0.25;fill:none" />
  <path d="M60.647,14.6704 L59.353,19.5" style="stroke:rgb(0,0,0);stroke-width:0.25;fill:none" />
  <path d="M1.29889,28.6525 L0.379556,32.0834" style="stroke:rgb(0,0,0);stroke-width:0.25;fill:none" />
  <path d="M0.379582,32.0835 A1.11111,1.11111 0 0,0 1.45283,33.4822 " style="stroke:rgb(0,0,0);stroke-width:0.25;fill:none" />
  <path d="M1.45284,33.4822 A1.43306,1.43306 0 0,0 3.05843,32.4527 " style="stroke:rgb(0,0,0);stroke-width:0.25;fill:none" />
  <path d="M3.05839,32.4527 L4.07667,28.6525" style="stroke:rgb(0,0,0);stroke-width:0.25;fill:none" />
  <path d="M5.0015,31.0852 L7.22372,31.0852" style="stroke:rgb(0,0,0);stroke-width:0.25;fill:none" />
  <path d="M4.57011,32.6951 L6.79239,32.6951" style="stroke:rgb(0,0,0);stroke-width:0.25;fill:none" />
  <path d="M11.0178,28.6704 L8.79561,28.6704" style="stroke:rgb(0,0,0);stroke-width:0.25;fill:none" />
  <path d="M8.79561,28.6704 L8.22044,30.8169" style="stroke:rgb(0,0,0);stroke-width:0.25;fill:none" />
  <path d="M8.22044,30.8169 L9.53767,30.8169" style="stroke:rgb(0,0,0);stroke-width:0.25;fill:none" />
  <path d="M9.53767,30.8169 A0.694444,0.694444 0 0,1 10.2084,31.6911 " style="stroke:rgb(0,0,0);stroke-width:0.25;fill:none" />
  <path d="M10.2084,31.6911 L9.95794,32.6258" style="stroke:rgb(0,0,0);stroke-width:0.25;fill:none" />
  <path d="M9.95798,32.6258 A1.17944,1.17944 0 0,1 8.81872,33.5 " style="stroke:rgb(0,0,0);stroke-width:0.25;fill:none" />
  <path d="M8.81872,33.5 L7.5015,33.5" style="stroke:rgb(0,0,0);stroke-width:0.25;fill:none" />
  <path d="M11.7673,32.1585 A2.02917,2.02917 0 0,0 11.9661,33.2317 " style="stroke:rgb(0,0,0);stroke-width:0.25;fill:none" />
  <path d="M11.966,33.2317 A0.509667,0.509667 0 0,0 12.4032,33.5 " style="stroke:rgb(0,0,0);stroke-width:0.25;fill:none" />
  <path d="M12.4032,33.5 A0.947889,0.947889 0 0,0 12.9841,33.2317 " style="stroke:rgb(0,0,0);stroke-width:0.25;fill:none" />
  <path d="M12.9841,33.2317 A3.56561,3.56561 0 0,0 13.758,32.1584 " style="stroke:rgb(0,0,0);stroke-width:0.25;fill:none" />
  <path d="M13.758,32.1584 L13.9431,31.7461" style="stroke:rgb(0,0,0);stroke-width:0.25;fill:none" />
  <path d="M13.9431,31.7461 L14.0716,31.3914" style="stroke:rgb(0,0,0);stroke-width:0.25;fill:none" />
  <path d="M14.0716,31.3914 L14.1847,30.9927" style="stroke:rgb(0,0,0);stroke-width:0.25;fill:none" />
  <path d="M14.1847,30.9927 L14.2928,30.4216" style="stroke:rgb(0,0,0);stroke-width:0.25;fill:none" />
  <path d="M14.2928,30.4216 L14.3331,30.0119" style="stroke:rgb(0,0,0);stroke-width:0.25;fill:none" />
  <path d="M14.3332,30.0116 A2.02894,2.02894 0 0,0 14.1344,28.9386 " style="stroke:rgb(0,0,0);stroke-width:0.25;fill:none" />
  <path d="M14.1344,28.9387 A0.509667,0.509667 0 0,0 13.6972,28.6704 " style="stroke:rgb(0,0,0);stroke-width:0.25;fill:none" />
  <path d="M13.6973,28.6704 A0.947889,0.947889 0 0,0 13.1163,28.9387 " style="stroke:rgb(0,0,0);stroke-width:0.25;fill:none" />
  <path d="M13.1163,28.9387 A3.56561,3.56561 0 0,0 12.3425,30.012 " style="stroke:rgb(0,0,0);stroke-width:0.25;fill:none" />
  <path d="M12.3424,30.0119 L12.1573,30.4243" style="stroke:rgb(0,0,0);stroke-width:0.25;fill:none" />
  <path d="M12.1573,30.4243 L12.0288,30.7789" style="stroke:rgb(0,0,0);stroke-width:0.25;fill:none" />
  <path d="M12.0288,30.7789 L11.9157,31.1777" style="stroke:rgb(0,0,0);stroke-width:0.25;fill:none" />
  <path d="M11.9157,31.1777 L11.8076,31.7487" style="stroke:rgb(0,0,0);stroke-width:0.25;fill:none" />
  <path d="M11.8076,31.7487 L11.7673,32.1584" style="stroke:rgb(0,0,0);stroke-width:0.25;fill:none" />
  <path d="M15.9131,28.6704 L16.2857,33.5" style="stroke:rgb(0,0,0);stroke-width:0.25;fill:none" />
  <path d="M16.2857,33.5 L19.2464,28.6704" style="stroke:rgb(0,0,0);stroke-width:0.25;fill:none" />
  <path d="M100,33.5 L101.294,28.6704" style="stroke:rgb(0,0,0);stroke-width:0.25;fill:none" />
  <path d="M101.294,28.6704 L102.624,28.6704" style="stroke:rgb(0,0,0);stroke-width:0.25;fill:none" />
  <path d="M102.624,28.6704 A1.11111,1.11111 0 0,1 103.697,30.0691 " style="stroke:rgb(0,0,0);stroke-width:0.25;fill:none" />
  <path d="M103.697,30.0691 L103.574,30.5299" style="stroke:rgb(0,0,0);stroke-width:0.25;fill:none" />
  <path d="M103.574,30.53 A1.11111,1.11111 0 0,1 102.5,31.3535 " style="stroke:rgb(0,0,0);stroke-width:0.25;fill:none" />
  <path d="M102.5,31.3535 L100.575,31.3535" style="stroke:rgb(0,0,0);stroke-width:0.25;fill:none" />
  <path d="M102.242,31.3535 L102.778,33.5" style="stroke:rgb(0,0,0);stroke-width:0.25;fill:none" />
  <path d="M104.66,31.0852 L106.882,31.0852" style="stroke:rgb(0,0,0);stroke-width:0.25;fill:none" />
  <path d="M104.228,32.6951 L106.451,32.6951" style="stroke:rgb(0,0,0);stroke-width:0.25;fill:none" />
  <path d="M108.166,29.7436 L109.565,28.6704" style="stroke:rgb(0,0,0);stroke-width:0.25;fill:none" />
  <path d="M109.565,28.6704 L108.271,33.5" style="stroke:rgb(0,0,0);stroke-width:0.25;fill:none" />
  <path d="M109.843,33.5 L109.857,33.4463" style="stroke:rgb(0,0,0);stroke-width:0.25;fill:none" />
  <path d="M110.607,32.1585 A2.02917,2.02917 0 0,0 110.805,33.2317 " style="stroke:rgb(0,0,0);stroke-width:0.25;fill:none" />
  <path d="M110.805,33.2317 A0.509667,0.509667 0 0,0 111.242,33.5 " style="stroke:rgb(0,0,0);stroke-width:0.25;fill:none" />
  <path d="M111.243,33.5 A0.947889,0.947889 0 0,0 111.823,33.2317 " style="stroke:rgb(0,0,0);stroke-width:0.25;fill:none" />
  <path d="M111.823,33.2317 A3.56561,3.56561 0 0,0 112.597,32.1584 " style="stroke:rgb(0,0,0);stroke-width:0.25;fill:none" />
  <path d="M112.597,32.1584 L112.782,31.7461" style="stroke:rgb(0,0,0);stroke-width:0.25;fill:none" />
  <path d="M112.782,31.7461 L112.911,31.3914" style="stroke:rgb(0,0,0);stroke-width:0.25;fill:none" />
  <path d="M112.911,31.3914 L113.024,30.9927" style="stroke:rgb(0,0,0);stroke-width:0.25;fill:none" />
  <path d="M113.024,30.9927 L113.132,30.4216" style="stroke:rgb(0,0,0);stroke-width:0.25;fill:none" />
  <path d="M113.132,30.4216 L113.172,30.0119" style="stroke:rgb(0,0,0);stroke-width:0.25;fill:none" />
  <path d="M113.173,30.0116 A2.02894,2.02894 0 0,0 112.974,28.9386 " style="stroke:rgb(0,0,0);stroke-width:0.25;fill:none" />
  <path d="M112.974,28.9387 A0.509667,0.509667 0 0,0 112.537,28.6704 " style="stroke:rgb(0,0,0);stroke-width:0.25;fill:none" />
  <path d="M112.537,28.6704 A0.947889,0.947889 0 0,0 111.956,28.9387 " style="stroke:rgb(0,0,0);stroke-width:0.25;fill:none" />
  <path d="M111.956,28.9387 A3.56561,3.56561 0 0,0 111.182,30.012 " style="stroke:rgb(0,0,0);stroke-width:0.25;fill:none" />
  <path d="M111.182,30.0119 L110.997,30.4243" style="stroke:rgb(0,0,0);stroke-width:0.25;fill:none" />
  <path d="M110.997,30.4243 L110.868,30.7789" style="stroke:rgb(0,0,0);stroke-width:0.25;fill:none" />
  <path d="M110.868,30.7789 L110.755,31.1777" style="stroke:rgb(0,0,0);stroke-width:0.25;fill:none" />
  <path d="M110.755,31.1777 L110.647,31.7487" style="stroke:rgb(0,0,0);stroke-width:0.25;fill:none" />
  <path d="M110.647,31.7487 L110.607,32.1584" style="stroke:rgb(0,0,0);stroke-width:0.25;fill:none" />
  <path d="M114.752,28.6704 L113.458,33.5" style="stroke:rgb(0,0,0);stroke-width:0.25;fill:none" />
  <path d="M113.89,31.8901 L116.543,30.2802" style="stroke:rgb(0,0,0);stroke-width:0.25;fill:none" />
  <path d="M115.681,33.5 L114.774,31.3535" style="stroke:rgb(0,0,0);stroke-width:0.25;fill:none" />
  <path d="M116.821,33.5 L118.488,33.5" style="stroke:rgb(0,0,0);stroke-width:0.25;fill:none" />
  <path d="M119.599,33.5 L121.266,33.5" style="stroke:rgb(0,0,0);stroke-width:0.25;fill:none" />
  <path d="M118.488,33.5 L118.48,33.3429" style="stroke:rgb(0,0,0);stroke-width:0.25;fill:none" />
  <path d="M118.48,33.3429 L118.458,33.2013" style="stroke:rgb(0,0,0);stroke-width:0.25;fill:none" />
  <path d="M118.458,33.2013 L118.423,33.0745" style="stroke:rgb(0,0,0);stroke-width:0.25;fill:none" />
  <path d="M118.423,33.0745 L118.377,32.9616" style="stroke:rgb(0,0,0);stroke-width:0.25;fill:none" />
  <path d="M118.377,32.9616 L118.323,32.8619" style="stroke:rgb(0,0,0);stroke-width:0.25;fill:none" />
  <path d="M118.323,32.8619 L118.261,32.7744" style="stroke:rgb(0,0,0);stroke-width:0.25;fill:none" />
  <path d="M118.261,32.7744 L118.195,32.6985" style="stroke:rgb(0,0,0);stroke-width:0.25;fill:none" />
  <path d="M118.195,32.6985 L118.125,32.6332" style="stroke:rgb(0,0,0);stroke-width:0.25;fill:none" />
  <path d="M118.125,32.6332 L118.055,32.5779" style="stroke:rgb(0,0,0);stroke-width:0.25;fill:none" />
  <path d="M118.055,32.5779 L117.985,32.5316" style="stroke:rgb(0,0,0);stroke-width:0.25;fill:none" />
  <path d="M117.985,32.5316 L117.917,32.4934" style="stroke:rgb(0,0,0);stroke-width:0.25;fill:none" />
  <path d="M117.917,32.4934 L117.852,32.4617" style="stroke:rgb(0,0,0);stroke-width:0.25;fill:none" />
  <path d="M117.852,32.4617 L117.789,32.4345" style="stroke:rgb(0,0,0);stroke-width:0.25;fill:none" />
  <path d="M117.789,32.4345 L117.728,32.4101" style="stroke:rgb(0,0,0);stroke-width:0.25;fill:none" />
  <path d="M117.728,32.4101 L117.668,32.3864" style="stroke:rgb(0,0,0);stroke-width:0.25;fill:none" />
  <path d="M117.668,32.3864 L117.61,32.3616" style="stroke:rgb(0,0,0);stroke-width:0.25;fill:none" />
  <path d="M117.61,32.3616 L117.553,32.3338" style="stroke:rgb(0,0,0);stroke-width:0.25;fill:none" />
  <path d="M117.553,32.3338 L117.497,32.3011" style="stroke:rgb(0,0,0);stroke-width:0.25;fill:none" />
  <path d="M117.497,32.3011 L117.442,32.2617" style="stroke:rgb(0,0,0);stroke-width:0.25;fill:none" />
  <path d="M117.442,32.2617 L117.387,32.2136" style="stroke:rgb(0,0,0);stroke-width:0.25;fill:none" />
  <path d="M117.387,32.2136 L117.332,32.1551" style="stroke:rgb(0,0,0);stroke-width:0.25;fill:none" />
  <path d="M117.332,32.1551 L117.278,32.0861" style="stroke:rgb(0,0,0);stroke-width:0.25;fill:none" />
  <path d="M117.278,32.0861 L117.226,32.0072" style="stroke:rgb(0,0,0);stroke-width:0.25;fill:none" />
  <path d="M117.226,32.0072 L117.177,31.9189" style="stroke:rgb(0,0,0);stroke-width:0.25;fill:none" />
  <path d="M117.177,31.9189 L117.132,31.8218" style="stroke:rgb(0,0,0);stroke-width:0.25;fill:none" />
  <path d="M117.132,31.8218 L117.092,31.7164" style="stroke:rgb(0,0,0);stroke-width:0.25;fill:none" />
  <path d="M117.092,31.7164 L117.058,31.6033" style="stroke:rgb(0,0,0);stroke-width:0.25;fill:none" />
  <path d="M117.058,31.6033 L117.032,31.4828" style="stroke:rgb(0,0,0);stroke-width:0.25;fill:none" />
  <path d="M117.032,31.4828 L117.015,31.3558" style="stroke:rgb(0,0,0);stroke-width:0.25;fill:none" />
  <path d="M117.015,31.3558 L117.007,31.2225" style="stroke:rgb(0,0,0);stroke-width:0.25;fill:none" />
  <path d="M117.007,31.2225 L117.009,31.0837" style="stroke:rgb(0,0,0);stroke-width:0.25;fill:none" />
  <path d="M117.009,31.0837 L117.023,30.9407" style="stroke:rgb(0,0,0);stroke-width:0.25;fill:none" />
  <path d="M117.023,30.9407 L117.047,30.795" style="stroke:rgb(0,0,0);stroke-width:0.25;fill:none" />
  <path d="M117.047,30.795 L117.082,30.6483" style="stroke:rgb(0,0,0);stroke-width:0.25;fill:none" />
  <path d="M117.082,30.6483 L117.128,30.5021" style="stroke:rgb(0,0,0);stroke-width:0.25;fill:none" />
  <path d="M117.128,30.5021 L117.185,30.3582" style="stroke:rgb(0,0,0);stroke-width:0.25;fill:none" />
  <path d="M117.185,30.3582 L117.253,30.2181" style="stroke:rgb(0,0,0);stroke-width:0.25;fill:none" />
  <path d="M117.253,30.2181 L117.332,30.0834" style="stroke:rgb(0,0,0);stroke-width:0.25;fill:none" />
  <path d="M117.332,30.0834 L117.422,29.9559" style="stroke:rgb(0,0,0);stroke-width:0.25;fill:none" />
  <path d="M117.422,29.9559 L117.523,29.8371" style="stroke:rgb(0,0,0);stroke-width:0.25;fill:none" />
  <path d="M117.523,29.8371 L117.634,29.7284" style="stroke:rgb(0,0,0);stroke-width:0.25;fill:none" />
  <path d="M117.634,29.7284 L117.756,29.6307" style="stroke:rgb(0,0,0);stroke-width:0.25;fill:none" />
  <path d="M117.756,29.6307 L117.887,29.5439" style="stroke:rgb(0,0,0);stroke-width:0.25;fill:none" />
  <path d="M117.887,29.5439 L118.026,29.4681" style="stroke:rgb(0,0,0);stroke-width:0.25;fill:none" />
  <path d="M118.026,29.4681 L118.172,29.4031" style="stroke:rgb(0,0,0);stroke-width:0.25;fill:none" />
  <path d="M118.172,29.4031 L118.324,29.349" style="stroke:rgb(0,0,0);stroke-width:0.25;fill:none" />
  <path d="M118.324,29.349 L118.48,29.3058" style="stroke:rgb(0,0,0);stroke-width:0.25;fill:none" />
  <path d="M118.48,29.3058 L118.641,29.2736" style="stroke:rgb(0,0,0);stroke-width:0.25;fill:none" />
  <path d="M118.641,29.2736 L118.804,29.2523" style="stroke:rgb(0,0,0);stroke-width:0.25;fill:none" />
  <path d="M118.804,29.2523 L118.968,29.2419" style="stroke:rgb(0,0,0);stroke-width:0.25;fill:none" />
  <path d="M118.968,29.2419 L119.133,29.2424" style="stroke:rgb(0,0,0);stroke-width:0.25;fill:none" />
  <path d="M119.133,29.2424 L119.298,29.2538" style="stroke:rgb(0,0,0);stroke-width:0.25;fill:none" />
  <path d="M119.298,29.2538 L119.461,29.2761" style="stroke:rgb(0,0,0);stroke-width:0.25;fill:none" />
  <path d="M119.461,29.2761 L119.621,29.3093" style="stroke:rgb(0,0,0);stroke-width:0.25;fill:none" />
  <path d="M119.621,29.3093 L119.777,29.3534" style="stroke:rgb(0,0,0);stroke-width:0.25;fill:none" />
  <path d="M119.777,29.3534 L119.928,29.4085" style="stroke:rgb(0,0,0);stroke-width:0.25;fill:none" />
  <path d="M119.928,29.4085 L120.074,29.4745" style="stroke:rgb(0,0,0);stroke-width:0.25;fill:none" />
  <path d="M120.074,29.4745 L120.212,29.5514" style="stroke:rgb(0,0,0);stroke-width:0.25;fill:none" />
  <path d="M120.212,29.5514 L120.342,29.6392" style="stroke:rgb(0,0,0);stroke-width:0.25;fill:none" />
  <path d="M120.342,29.6392 L120.463,29.7378" style="stroke:rgb(0,0,0);stroke-width:0.25;fill:none" />
  <path d="M120.463,29.7378 L120.574,29.8474" style="stroke:rgb(0,0,0);stroke-width:0.25;fill:none" />
  <path d="M120.574,29.8474 L120.673,29.9672" style="stroke:rgb(0,0,0);stroke-width:0.25;fill:none" />
  <path d="M120.673,29.9672 L120.762,30.0954" style="stroke:rgb(0,0,0);stroke-width:0.25;fill:none" />
  <path d="M120.762,30.0954 L120.84,30.2307" style="stroke:rgb(0,0,0);stroke-width:0.25;fill:none" />
  <path d="M120.84,30.2307 L120.907,30.3712" style="stroke:rgb(0,0,0);stroke-width:0.25;fill:none" />
  <path d="M120.907,30.3712 L120.963,30.5153" style="stroke:rgb(0,0,0);stroke-width:0.25;fill:none" />
  <path d="M120.963,30.5153 L121.008,30.6616" style="stroke:rgb(0,0,0);stroke-width:0.25;fill:none" />
  <path d="M121.008,30.6616 L121.042,30.8083" style="stroke:rgb(0,0,0);stroke-width:0.25;fill:none" />
  <path d="M121.042,30.8083 L121.066,30.9538" style="stroke:rgb(0,0,0);stroke-width:0.25;fill:none" />
  <path d="M121.066,30.9538 L121.078,31.0966" style="stroke:rgb(0,0,0);stroke-width:0.25;fill:none" />
  <path d="M121.078,31.0966 L121.08,31.2349" style="stroke:rgb(0,0,0);stroke-width:0.25;fill:none" />
  <path d="M121.08,31.2349 L121.071,31.3676" style="stroke:rgb(0,0,0);stroke-width:0.25;fill:none" />
  <path d="M121.071,31.3676 L121.052,31.4941" style="stroke:rgb(0,0,0);stroke-width:0.25;fill:none" />
  <path d="M121.052,31.4941 L121.025,31.6138" style="stroke:rgb(0,0,0);stroke-width:0.25;fill:none" />
  <path d="M121.025,31.6138 L120.991,31.7263" style="stroke:rgb(0,0,0);stroke-width:0.25;fill:none" />
  <path d="M120.991,31.7263 L120.951,31.8311" style="stroke:rgb(0,0,0);stroke-width:0.25;fill:none" />
  <path d="M120.951,31.8311 L120.906,31.9274" style="stroke:rgb(0,0,0);stroke-width:0.25;fill:none" />
  <path d="M120.906,31.9274 L120.856,32.0148" style="stroke:rgb(0,0,0);stroke-width:0.25;fill:none" />
  <path d="M120.856,32.0148 L120.804,32.0928" style="stroke:rgb(0,0,0);stroke-width:0.25;fill:none" />
  <path d="M120.804,32.0928 L120.75,32.1608" style="stroke:rgb(0,0,0);stroke-width:0.25;fill:none" />
  <path d="M120.75,32.1608 L120.695,32.2183" style="stroke:rgb(0,0,0);stroke-width:0.25;fill:none" />
  <path d="M120.695,32.2183 L120.64,32.2655" style="stroke:rgb(0,0,0);stroke-width:0.25;fill:none" />
  <path d="M120.64,32.2655 L120.585,32.3038" style="stroke:rgb(0,0,0);stroke-width:0.25;fill:none" />
  <path d="M120.585,32.3038 L120.53,32.3349" style="stroke:rgb(0,0,0);stroke-width:0.25;fill:none" />
  <path d="M120.53,32.3349 L120.475,32.3604" style="stroke:rgb(0,0,0);stroke-width:0.25;fill:none" />
  <path d="M120.475,32.3604 L120.42,32.3819" style="stroke:rgb(0,0,0);stroke-width:0.25;fill:none" />
  <path d="M120.42,32.3819 L120.365,32.4011" style="stroke:rgb(0,0,0);stroke-width:0.25;fill:none" />
  <path d="M120.365,32.4011 L120.31,32.4195" style="stroke:rgb(0,0,0);stroke-width:0.25;fill:none" />
  <path d="M120.31,32.4195 L120.255,32.4388" style="stroke:rgb(0,0,0);stroke-width:0.25;fill:none" />
  <path d="M120.255,32.4388 L120.2,32.4606" style="stroke:rgb(0,0,0);stroke-width:0.25;fill:none" />
  <path d="M120.2,32.4606 L120.144,32.4866" style="stroke:rgb(0,0,0);stroke-width:0.25;fill:none" />
  <path d="M120.144,32.4866 L120.09,32.5177" style="stroke:rgb(0,0,0);stroke-width:0.25;fill:none" />
  <path d="M120.09,32.5177 L120.035,32.5541" style="stroke:rgb(0,0,0);stroke-width:0.25;fill:none" />
  <path d="M120.035,32.5541 L119.982,32.5952" style="stroke:rgb(0,0,0);stroke-width:0.25;fill:none" />
  <path d="M119.982,32.5952 L119.931,32.641" style="stroke:rgb(0,0,0);stroke-width:0.25;fill:none" />
  <path d="M119.931,32.641 L119.882,32.6911" style="stroke:rgb(0,0,0);stroke-width:0.25;fill:none" />
  <path d="M119.882,32.6911 L119.835,32.7453" style="stroke:rgb(0,0,0);stroke-width:0.25;fill:none" />
  <path d="M119.835,32.7453 L119.792,32.8032" style="stroke:rgb(0,0,0);stroke-width:0.25;fill:none" />
  <path d="M119.792,32.8032 L119.753,32.8647" style="stroke:rgb(0,0,0);stroke-width:0.25;fill:none" />
  <path d="M119.753,32.8647 L119.719,32.9293" style="stroke:rgb(0,0,0);stroke-width:0.25;fill:none" />
  <path d="M119.719,32.9293 L119.689,32.997" style="stroke:rgb(0,0,0);stroke-width:0.25;fill:none" />
  <path d="M119.689,32.997 L119.665,33.0671" style="stroke:rgb(0,0,0);stroke-width:0.25;fill:none" />
  <path d="M119.665,33.0671 L119.645,33.1377" style="stroke:rgb(0,0,0);stroke-width:0.25;fill:none" />
  <path d="M119.645,33.1377 L119.63,33.2072" style="stroke:rgb(0,0,0);stroke-width:0.25;fill:none" />
  <path d="M119.63,33.2072 L119.618,33.2735" style="stroke:rgb(0,0,0);stroke-width:0.25;fill:none" />
  <path d="M119.618,33.2735 L119.61,33.3348" style="stroke:rgb(0,0,0);stroke-width:0.25;fill:none" />
  <path d="M119.61,33.3348 L119.605,33.3892" style="stroke:rgb(0,0,0);stroke-width:0.25;fill:none" />
  <path d="M119.605,33.3892 L119.601,33.4348" style="stroke:rgb(0,0,0);stroke-width:0.25;fill:none" />
  <path d="M119.601,33.4348 L119.6,33.4698" style="stroke:rgb(0,0,0);stroke-width:0.25;fill:none" />
  <path d="M119.6,33.4698 L119.599,33.4921" style="stroke:rgb(0,0,0);stroke-width:0.25;fill:none" />
  <path d="M119.599,33.4921 L119.599,33.5" style="stroke:rgb(0,0,0);stroke-width:0.25;fill:none" />
</svg>
