<svg xmlns="http://www.w3.org/2000/svg"
   xmlns:xlink="http://www.w3.org/1999/xlink"
   version="1.1"
   id="resistance_06.eps" width="100%" height="100%"  viewBox="-6 -6 1126 351">
<desc>
XCircuit Version 3.10
File "fluids_01.eps" Page 1
</desc>
<g stroke="black">
<path d="M0,96 L128,96 304,48 528,48 608,80 " fill="none" stroke-width="8" stroke-linejoin="bevel" stroke-linecap="round" stroke="#000000" />
<path d="M608,80 C704,112 816,48 880,16 " fill="none" stroke-width="8" stroke-linejoin="bevel" stroke-linecap="round" stroke="#000000" />
<path d="M880,16 C896,0 1040,0 1120,0 " fill="none" stroke-width="8" stroke-linejoin="bevel" stroke-linecap="round" stroke="#000000" />
<path d="M0,192 L128,192 304,240 528,240 608,208 " fill="none" stroke-width="8" stroke-linejoin="bevel" stroke-linecap="round" stroke="#000000" />
<path d="M608,208 C704,176 816,240 880,272 " fill="none" stroke-width="8" stroke-linejoin="bevel" stroke-linecap="round" stroke="#000000" />
<path d="M880,272 C896,288 1040,288 1120,288 " fill="none" stroke-width="8" stroke-linejoin="bevel" stroke-linecap="round" stroke="#000000" />
<path d="M16,136 L128,136 128,120 192,144 128,168 128,152 16,152 16,136 " fill="#5cacef" stroke-width="2" stroke-linejoin="bevel" stroke-linecap="round" stroke="#5cacef" />
<path d="M944,168 L944,120 976,120 976,104 1024,144 976,184 976,168 944,168 " fill="#5cacef" stroke-width="2" stroke-linejoin="bevel" stroke-linecap="round" stroke="#5cacef" />
<path d="M384,160 L384,128 448,128 448,112 496,144 448,176 448,160 384,160 " fill="#5cacef" stroke-width="2" stroke-linejoin="bevel" stroke-linecap="round" stroke="#5cacef" />
<g transform="matrix(   1    0   -0    1  16 272)" fill="#0000ff" >
<text stroke="none" font-family="Times"  font-style="italic" font-size="40" ><tspan x="0" y="0">&#961;</tspan><text stroke="none" font-family="Times"  font-style="italic" font-size="40" ><tspan x="20" y="0"><tspan dy="9" font-size="26.8">1</tspan><tspan y="0">A</tspan><tspan dy="9" font-size="26.8">1</tspan><tspan y="0">v</tspan><tspan dy="9" font-size="26.8">1</tspan><tspan y="0"></tspan></tspan></text>
</text></g>
<g transform="matrix(   1    0   -0    1 368 288)" fill="#0000ff" >
<text stroke="none" font-family="Times"  font-style="italic" font-size="40" ><tspan x="0" y="0">&#961;</tspan><text stroke="none" font-family="Times"  font-style="italic" font-size="40" ><tspan x="20" y="0"><tspan dy="9" font-size="26.8">2</tspan><tspan y="0">A</tspan><tspan dy="9" font-size="26.8">2</tspan><tspan y="0">v</tspan><tspan dy="9" font-size="26.8">2</tspan></tspan></text>
</text></g>
<g transform="matrix(   1    0   -0    1 912 336)" fill="#0000ff" >
<text stroke="none" font-family="Times"  font-style="italic" font-size="40" ><tspan x="0" y="0">&#961;</tspan><text stroke="none" font-family="Times"  font-style="italic" font-size="40" ><tspan x="20" y="0"><tspan dy="9" font-size="26.8">3</tspan><tspan y="0">A</tspan><tspan dy="9" font-size="26.8">3</tspan><tspan y="0">v</tspan><tspan dy="9" font-size="26.8">3</tspan></tspan></text>
</text></g>
<path d="M88,248 L112,248 " fill="none" stroke-width="2" stroke-linejoin="bevel" stroke-linecap="round" stroke="#0000ff" />
<path d="M436,264 L460,264 " fill="none" stroke-width="2" stroke-linejoin="bevel" stroke-linecap="round" stroke="#0000ff" />
<path d="M984,312 L1008,312 " fill="none" stroke-width="2" stroke-linejoin="bevel" stroke-linecap="round" stroke="#0000ff" />
</g>
</svg>
